<?xml version="1.0" encoding="utf-8"?><!DOCTYPE svg PUBLIC "-//W3C//DTD SVG 1.1//EN" "http://www.w3.org/Graphics/SVG/1.1/DTD/svg11.dtd"><svg xmlns="http://www.w3.org/2000/svg" viewBox="0 0 1500 300" style="fill:#779">
<title>Flexr Grid Compatible Browsers</title>
<path d="M253.6,217.9a123.5,123.5,0,0,0,13-26c9-16.4,17.3-46.1,9.8-72,.9,3.5,4.5,19.5-2.5,32.5,0-.8,0-1.6,0-2.4a124.5,124.5,0,0,0-2.4-24.6c.1-1.9.2-3.9.2-5.9,0-21.9-8.5-40.7-24.2-55.8,0,0,9.8,10.9,10.9,26.1A123.9,123.9,0,0,0,57.5,67.5a43.1,43.1,0,0,1-7.4-16.9s-14.4,12-12.8,45.9c-7.3,10.2-13.6,24.7-17,45.5a93.8,93.8,0,0,1,5.5-12c-1.4,3-4.5,13.2-3.5,44.7,0,0,1.7-10.7,2.9-14,0,0-1.7,89.5,105.3,116.5,0,0-7.6-3.8-9.7-5.5s19,7.2,37.3,6.2c0,0-4.2-1.5-6.2-3.4,0,0,56.3,4.2,75.8-22.8,0,0-6.4,6.7-22.1,8.9a124,124,0,0,0,20-12.6c15.2-6.4,41-22.5,42.5-47.7C268.2,200.3,267.2,208.4,253.6,217.9Zm11.7-55.7-.3.3.5-1.6ZM150,34a115.5,115.5,0,0,1,49.9,11.2c8.3,5.9,25.9,19.8,33,37.8,0,0-9.8-12.2-24.2-13.9,0,0,30,22.7,27.8,69.4,0,0-2.4-9.1-11.9-18.1,0,0,4.6,39.2-1.8,52.6a36.9,36.9,0,0,0-3.1-8.5s-9,43.3-21.1,43.3c-3.3,0-1.1-5.6-1.1-5.6-11.6,6.3-11.6,13.8-15.8,13.8-2.6,0,1.5-1.7,1.8-4.8-36.9,18.4-69.9-16.8-69.9-16.8a84.6,84.6,0,0,0,13.7,1.5c26.4,0,32.3-16.2,42.4-16.2,0,0,7.7,1.7,7.7-3.9,0-3.6-6.4-11.6-19.2-11.6-14.9,0-16.7,7.3-28.7,7.3-10,0-27.8-11-27.8-21.6,0-7.7,4.9-10.4,4.9-10.4,7-1.4,11.9,4.4,11.9,4.4,2.5-7.5.4-17.5.4-17.5a15.9,15.9,0,0,1,5.7-4.7c5.1-2.7,23-10.4,23-21.7,0-4.2-4-4.7-12.5-4.7-16.5,0-17.6-.1-24.1-10.4,0,0,1.9-13.3,17.9-24.7,0,0-15.8-6-34.3,14.8a37.1,37.1,0,0,0-13.7-2.3,50.3,50.3,0,0,0-15.6,2.6l-2.4-1.9Q65.4,70.6,68,68A115.2,115.2,0,0,1,150,34Z"/>
<path d="M276.4,119.8l-.2-.7Z"/>
<path d="M450,35a115,115,0,0,1,81.3,196.3A115,115,0,0,1,368.7,68.7,114.2,114.2,0,0,1,450,35m0-10a125,125,0,1,0,88.4,36.6A124.6,124.6,0,0,0,450,25Z"/>
<path d="M529.4,70.8l-89.8,68.6L371,229.2l89.8-68.6h0Zm-86.9,71.4L458,157.8l-65.6,50.1Z"/>
<circle cx="750" cy="150" r="45.3"/>
<path d="M693.2,142.3A57.4,57.4,0,0,1,750,92.7H861.1A125,125,0,0,0,652.5,71.8Z"/>
<path d="M771.7,203a57.2,57.2,0,0,1-71.3-24.4h0L644.8,82.4A125,125,0,0,0,731,273.6Z"/>
<path d="M785,104.7a57.2,57.2,0,0,1,14.6,73.9h0l-55.5,96.2H750A125.1,125.1,0,0,0,866.5,104.7Z"/>
<path d="M1087.8,258.8c-63,0-102.1-48.4-102.1-108.3h0v-.2a128.8,128.8,0,0,1,1.4-18.8l.2-1.4v-.8c8.1-49.7,45-87.1,100.4-87.1,17.3,0,34.8,7.1,49.8,19.2a125,125,0,1,0,6.6,172.5C1127.9,249.4,1107.7,258.8,1087.8,258.8Z"/>
<path d="M1172.9,125.1a111.5,111.5,0,0,0-25.2-48.7c-17.1-19.3-38.9-30.3-59.9-30.3s-38.6,5.2-53.8,15.1a48.4,48.4,0,0,1,17.6-3.3c36.4,0,65.8,41.3,65.8,92.3s-29.5,92.3-65.8,92.3a48.8,48.8,0,0,1-20-4.3c15.7,11,34.8,16.7,56.3,16.7s42.8-11.1,59.9-30.3a111.5,111.5,0,0,0,26.9-57.7,126.1,126.1,0,0,0-1.7-41.6Z"/>
<path d="M1235,135.9c3.2-44,38-103.4,110.6-103.4,56.7,0,104.8,43.1,104.8,108v27.5H1303.9c0,11.2,4.6,50.1,61.3,50.1,41.7,0,65.5-17.9,65.5-17.9v49.2s-26.3,17.1-70.5,17.1c-47.8,0-98.5-29.7-98.5-92.6S1318.5,90,1318.5,90s-15.9,21.3-15.9,37.1h83.5c0-18.8-6.3-50.1-45.9-50.1C1272.1,77.1,1235,135.9,1235,135.9Z"/></svg>
