<?xml version="1.0" encoding="utf-8"?><!DOCTYPE svg PUBLIC "-//W3C//DTD SVG 1.1//EN" "http://www.w3.org/Graphics/SVG/1.1/DTD/svg11.dtd">
<svg xmlns="http://www.w3.org/2000/svg" viewBox="0 0 732 340"><defs>
<filter  id="AI_GaussianBlur_4"><feGaussianBlur stdDeviation="4"></feGaussianBlur></filter>
<style>
.st0{opacity:0.6;filter:url(#AI_GaussianBlur_4);}
.st1{fill:#DDE}
.st2{fill:#F56}
.st3{fill:#BBC}
.st4{fill:#3DD}
</style></defs>
<rect x="20" y="20" class="st0" width="380" height="300"/>
<rect x="20" y="20" class="st1" width="380" height="300"/>
<rect x="73" y="190" class="st2" width="58" height="100"/>
<rect x="73" y="50" class="st3" width="273" height="130"/>
<rect x="145" y="190" class="st2" width="58" height="100"/>
<rect x="217" y="190" class="st2" width="58" height="100"/>
<rect x="288" y="190" class="st2" width="58" height="100"/>
<rect x="519" y="20" class="st0" width="193" height="300"/>
<rect x="519" y="20" class="st1" width="193" height="300"/>
<rect x="529" y="140" class="st2" width="82" height="80"/>
<rect x="621" y="140" class="st2" width="82" height="80"/>
<rect x="529" y="230" class="st2" width="82" height="80"/>
<rect x="621" y="230" class="st2" width="82" height="80"/>
<rect x="529" y="30" class="st3" width="173" height="100"/>
<rect x="422" y="152" class="st4" width="34" height="36"/>
<polygon class="st4" points="452,137 452,203 498,170 "/>
</svg>
