<?xml version="1.0" encoding="utf-8"?><!DOCTYPE svg PUBLIC "-//W3C//DTD SVG 1.1//EN" "http://www.w3.org/Graphics/SVG/1.1/DTD/svg11.dtd">
<svg xmlns="http://www.w3.org/2000/svg" aria-labelledby="title" viewBox="0 0 732 340">
<title id="title">Illustration of columns expanding when the screen shrinks</title>
<defs><style><![CDATA[
      * { stroke: #1c1c2d; stroke-width: 2px }

      .cls-1 { fill: #dde }

      .cls-2 { fill: #f56 }

      .cls-3 { fill: #bbc }

      .cls-4 { fill: #3dd }
]]></style></defs>
<rect class="cls-1" x="20" y="20" width="380" height="300"/>
<rect class="cls-2" x="73" y="190" width="58" height="100"/>
<rect class="cls-3" x="73" y="50" width="273" height="130"/>
<rect class="cls-2" x="145" y="190" width="58" height="100"/>
<rect class="cls-2" x="217" y="190" width="58" height="100"/>
<rect class="cls-2" x="288" y="190" width="58" height="100"/>
<rect class="cls-1" x="519" y="20" width="193" height="300"/>
<rect class="cls-2" x="529" y="140" width="82" height="80"/>
<rect class="cls-2" x="621" y="140" width="82" height="80"/>
<rect class="cls-2" x="529" y="230" width="82" height="80"/>
<rect class="cls-2" x="621" y="230" width="82" height="80"/>
<rect class="cls-3" x="529" y="30" width="173" height="100"/>
<polygon class="cls-4" points="500 170 452 137 452 153 422 153 422 187 452 187 452 203 500 170"/></svg>
