<?xml version="1.0" encoding="utf-8"?><?xml-stylesheet type="text/css" href="../css/master.css"?><!DOCTYPE svg PUBLIC "-//W3C//DTD SVG 1.1//EN" "http://www.w3.org/Graphics/SVG/1.1/DTD/svg11.dtd"><svg xmlns="http://www.w3.org/2000/svg" viewBox="0 0 692 430"><defs><filter id="a" name="AI_GaussianBlur_5"><feGaussianBlur stdDeviation="4"/></filter><filter id="b" name="AI_GaussianBlur_7"><feGaussianBlur stdDeviation="7"/></filter>
<style>
.st0{fill:#aab}
.st1{fill:#dde}
.st2{fill:#668}
.st3{fill:#bbc}
.st4{fill:#F56}
</style></defs>
<g id="bottom">
<rect x="20" y="16" width="504" height="360" style="opacity:0.7;mix-blend-mode:multiply;filter:url(#a)"/>
<rect x="20" y="16" width="504" height="360" class="st1"/>
<rect x="20" y="16" width="504" height="60" class="st2"/>
<rect x="108" y="230" width="70" height="130" class="st0"/>
<rect x="194" y="230" width="70" height="130" class="st0"/>
<rect x="280" y="230" width="70" height="130" class="st0"/>
<rect x="366" y="230" width="70" height="130" class="st0"/>
<rect x="108" y="92" width="328" height="122" class="st3"/>
<rect x="108" y="31" width="70" height="30" class="st4"/>
<rect x="280" y="39" width="40" height="14" class="st1"/>
<rect x="338" y="39" width="40" height="14" class="st1"/>
<rect x="396" y="39" width="40" height="14" class="st1"/></g>
<g id="top">
<rect x="415" y="65" width="260" height="350" style="opacity:0.6;mix-blend-mode:multiply;filter:url(#b)"/>
<rect x="415" y="65" width="260" height="350" class="st1"/>
<rect x="415" y="65" width="260" height="40" class="st2"/>
<rect x="425" y="285" width="115" height="120" class="st0"/>
<rect x="550" y="285" width="115" height="120" class="st0"/>
<rect x="425" y="115" width="240" height="160" class="st3"/>
<rect x="525" y="75" width="40" height="20" class="st4"/></g></svg>
