<svg xmlns="http://www.w3.org/2000/svg" viewBox="0 0 264 148"><title>flexr-logo</title><path d="M184.05,59.78L175.34,72H149l20.56-27.72L150.42,18H177l7.7,11.29L192.26,18H218L198.84,44.28,219,72H192.26Z" style="fill:#ff6868"/><rect y="52" width="24" height="20" style="fill:#ff6868"/><rect y="26" width="40" height="20" style="fill:#ff6868"/><rect width="58" height="20" style="fill:#ff6868"/><path d="M245,24.1h0.29a17,17,0,0,1,14.14-7.53,14,14,0,0,1,4.48.51L262.07,37s-0.9-.61-5-0.61C249.57,36.41,246,42.26,246,46V72H223V18h22v6.1Z" style="fill:#ff6868"/><rect x="64" width="24" height="72" style="fill:#ff6868"/><path d="M151.63,45c0-13.92-9.13-29-28.17-29C105,16,93.65,29.15,93.65,45c0,16.86,12.54,29,29.8,29C144.25,74,150,61.49,150,61.49L133.32,53a11.26,11.26,0,0,1-8.75,3.76c-5.89,0-9.16-3.49-9.16-6.28h36S151.63,47.75,151.63,45Zm-36.41-7.08s0.85-6.51,8.44-6.51c6,0,7.73,3.9,7.73,6.51H115.21Z" style="fill:#ff6868"/><path d="M184.05,133.78L175.34,146H149l20.56-27.72L150.42,92H177l7.7,11.29L192.26,92H218l-19.15,26.28L219,146H192.26Z" style="fill:#dde"/><rect y="126" width="24" height="20" style="fill:#dde"/><rect y="100" width="40" height="20" style="fill:#dde"/><rect y="74" width="58" height="20" style="fill:#dde"/><path d="M245,98.1h0.29a17,17,0,0,1,14.14-7.53,14,14,0,0,1,4.48.51L262.07,111s-0.9-.61-5-0.61c-7.52,0-11.09,5.85-11.09,9.59v26H223V92h22v6.1Z" style="fill:#dde"/><rect x="64" y="74" width="24" height="72" style="fill:#dde"/><path d="M151.63,119c0-13.92-9.13-29-28.17-29-18.44,0-29.8,13.15-29.8,29,0,16.86,12.54,29,29.8,29,20.79,0,26.55-12.51,26.55-12.51L133.32,127a11.26,11.26,0,0,1-8.75,3.76c-5.89,0-9.16-3.49-9.16-6.28h36S151.63,121.75,151.63,119Zm-36.41-7.08s0.85-6.51,8.44-6.51c6,0,7.73,3.9,7.73,6.51H115.21Z" style="fill:#dde"/></svg>