<?xml version="1.0" encoding="utf-8"?>
<!DOCTYPE svg PUBLIC "-//W3C//DTD SVG 1.1//EN" "http://www.w3.org/Graphics/SVG/1.1/DTD/svg11.dtd">
<svg xmlns="http://www.w3.org/2000/svg" viewBox="0 0 1250 250">
<defs><style type="text/css">
.sdw{opacity:0.6;filter:url(#AI_GaussianBlur_4)}
.st1{fill:#F56}
.st2{fill:#EEF}
.st3{fill:#3DD}
.st4{stroke:#2B2B3F;stroke-width:6}
.st5{fill:#5EB}
</style></defs>
<filter id="AI_GaussianBlur_4">
<feGaussianBlur  stdDeviation="4"></feGaussianBlur>
</filter>
<rect class="sdw" x="270" y="20" width="150" height="150"/>
<rect x="270" y="20" class="st1" width="150" height="150"/>
<path class="st2" d="M314.96,95.08c2.45,0,7.21,2.7,7.21,9.42v11.45c0,2.85,1.06,5.09,4.24,5.09h2.89v11.62h-8.14c-8.2,0-12.64-5.75-12.64-14.51v-11.2c0-3.74-1.06-5.94-5.52-5.94V88.98c4.46,0,5.52-2.2,5.52-5.94v-11.2c0-8.76,4.45-14.51,12.64-14.51h8.14v11.62h-2.89c-3.18,0-4.24,2.24-4.24,5.09V85.5c0,6.72-4.76,9.42-7.21,9.42V95.08z"/>
<path class="st2" d="M375.04,95.08c-2.45,0-7.21,2.7-7.21,9.42v11.45c0,2.85-1.06,5.09-4.24,5.09h-2.89v11.62h8.14c8.2,0,12.64-5.75,12.64-14.51v-11.2c0-3.74,1.06-5.94,5.52-5.94V88.98c-4.46,0-5.52-2.2-5.52-5.94v-11.2c0-8.76-4.45-14.51-12.64-14.51h-8.14v11.62h2.89c3.18,0,4.24,2.24,4.24,5.09V85.5c0,6.72,4.76,9.42,7.21,9.42V95.08z"/>
<rect class="sdw" x="330" y="80" width="150" height="150"/>
<rect x="330" y="80" class="st3" width="150" height="150"/>
<rect x="366" y="119" class="st2" width="18" height="72"/>
<rect x="396" y="119" class="st2" width="18" height="72"/>
<rect x="426" y="119" class="st2" width="18" height="72"/>
<rect class="sdw" x="50" y="50" width="150" height="150"/>
<rect x="50" y="50" class="st1" width="150" height="150"/>
<path class="st2" d="M94.96,125.08c2.45,0,7.21,2.7,7.21,9.42v11.45c0,2.85,1.06,5.09,4.24,5.09h2.89v11.62h-8.14c-8.2,0-12.64-5.75-12.64-14.51v-11.2c0-3.74-1.06-5.94-5.52-5.94v-12.05c4.46,0,5.52-2.2,5.52-5.94v-11.2c0-8.76,4.45-14.51,12.64-14.51h8.14v11.62h-2.89c-3.18,0-4.24,2.24-4.24,5.09v11.45c0,6.72-4.76,9.42-7.21,9.42V125.08z"/>
<path class="st2" d="M155.04,125.08c-2.45,0-7.21,2.7-7.21,9.42v11.45c0,2.85-1.06,5.09-4.24,5.09h-2.89v11.62h8.14c8.2,0,12.64-5.75,12.64-14.51v-11.2c0-3.74,1.06-5.94,5.52-5.94v-12.05c-4.46,0-5.52-2.2-5.52-5.94v-11.2c0-8.76-4.45-14.51-12.64-14.51h-8.14v11.62h2.89c3.18,0,4.24,2.24,4.24,5.09v11.45c0,6.72,4.76,9.42,7.21,9.42V125.08z"/>
<polygon class="sdw" points="828,96 828,185 922,185 922,65 859,65"/>
<polygon class="st3" points="828,96 828,185 922,185 922,65 859,65"/>
<line class="st4" x1="850" y1="106" x2="900" y2="106"/>
<line class="st4" x1="850" y1="119" x2="886" y2="119"/>
<line class="st4" x1="850" y1="132" x2="872" y2="132"/>
<rect class="sdw" x="571" y="150" width="46" height="33"/>
<rect class="sdw" x="571" y="108" width="75" height="33"/>
<rect class="sdw" x="571" y="67" width="108" height="33"/>
<rect x="571" y="150" class="st1" width="46" height="33"/>
<rect x="571" y="108" class="st1" width="75" height="33"/>
<rect x="571" y="67" class="st1" width="108" height="33"/>
<path class="sdw" d="M1077.68,132.44c-8.11,0-14.68-6.57-14.68-14.68c0-8.11,6.57-14.68,14.68-14.68c1.8,0,3.52,0.33,5.11,0.92c-0.08-0.77-0.13-1.55-0.13-2.34c0-11.78,9.55-21.32,21.32-21.32c3.19,0,6.21,0.7,8.92,1.96c3.09-11.13,13.29-19.3,25.4-19.3c14.56,0,26.36,11.8,26.36,26.36c0,0.63-0.02,1.25-0.07,1.86c0.58-0.05,1.16-0.08,1.75-0.08c11.4,0,20.65,9.24,20.65,20.65s-9.24,20.65-20.65,20.65H1077.68z"/>
<polygon class="sdw" points="1133,157 1133,140 1117,140 1117,157 1105,157 1125,187 1145,157"/>
<path class="st5" d="M1077.68,132.44c-8.11,0-14.68-6.57-14.68-14.68c0-8.11,6.57-14.68,14.68-14.68c1.8,0,3.52,0.33,5.11,0.92c-0.08-0.77-0.13-1.55-0.13-2.34c0-11.78,9.55-21.32,21.32-21.32c3.19,0,6.21,0.7,8.92,1.96c3.09-11.13,13.29-19.3,25.4-19.3c14.56,0,26.36,11.8,26.36,26.36c0,0.63-0.02,1.25-0.07,1.86c0.58-0.05,1.16-0.08,1.75-0.08c11.4,0,20.65,9.24,20.65,20.65s-9.24,20.65-20.65,20.65H1077.68z"/>
<polygon class="st5" points="1133,157 1133,140 1117,140 1117,157 1105,157 1125,187 1145,157"/></svg>
