<?xml version="1.0" encoding="utf-8"?><?xml-stylesheet type="text/css" href="../css/master.css"?><svg xmlns="http://www.w3.org/2000/svg" viewBox="0 0 732 470"><defs><filter id="a" name="AI_GaussianBlur_5"><feGaussianBlur stdDeviation="4"/></filter><filter id="b" name="AI_GaussianBlur_7"><feGaussianBlur stdDeviation="7"/></filter></defs><g id="bottom"><rect x="40" y="36" width="504" height="360" style="opacity:0.7;mix-blend-mode:multiply;filter:url(#a)"/><rect x="40" y="36" width="504" height="360" style="fill:#dde"/><rect x="40" y="36" width="504" height="60" style="fill:#668"/><rect x="128" y="250" width="70" height="130" style="fill:#aab"/><rect x="214" y="250" width="70" height="130" style="fill:#aab"/><rect x="300" y="250" width="70" height="130" style="fill:#aab"/><rect x="386" y="250" width="70" height="130" style="fill:#aab"/><rect x="128" y="112" width="328" height="122" style="fill:#bbc"/><rect x="128" y="51" width="70" height="30" style="fill:#F56"/><rect x="300" y="59" width="40" height="14" style="fill:#dde"/><rect x="358" y="59" width="40" height="14" style="fill:#dde"/><rect x="416" y="59" width="40" height="14" style="fill:#dde"/></g><g id="top"><rect x="435" y="85" width="260" height="350" style="opacity:0.6;mix-blend-mode:multiply;filter:url(#b)"/><rect x="435" y="85" width="260" height="350" style="fill:#dde"/><rect x="435" y="85" width="260" height="40" style="fill:#668"/><rect x="445" y="305" width="115" height="120" style="fill:#aab"/><rect x="570" y="305" width="115" height="120" style="fill:#aab"/><rect x="445" y="135" width="240" height="160" style="fill:#bbc"/><rect x="545" y="95" width="40" height="20" style="fill:#F56"/></g></svg>
