<?xml version="1.0" encoding="utf-8"?><!DOCTYPE svg PUBLIC "-//W3C//DTD SVG 1.1//EN" "http://www.w3.org/Graphics/SVG/1.1/DTD/svg11.dtd"><svg version="1.1" xmlns="http://www.w3.org/2000/svg" xmlns:xlink="http://www.w3.org/1999/xlink" x="0px" y="0px" viewBox="0 0 264 74" xml:space="preserve"><defs><g id="logo-def"><path d="M184.05,59.78L175.34,72H149l20.56-27.72L150.42,18H177l7.7,11.29L192.26,18H218L198.84,44.28,219,72H192.26Z"/><rect y="52" width="24" height="20"/><rect y="26" width="40" height="20"/><rect width="58" height="20"/><path d="M245,24.1h0.29a17,17,0,0,1,14.14-7.53,14,14,0,0,1,4.48.51L262.07,37s-0.9-.61-5-0.61C249.57,36.41,246,42.26,246,46V72H223V18h22v6.1Z"/><rect x="64" width="24" height="72"/><path d="M151.63,45c0-13.92-9.13-29-28.17-29C105,16,93.65,29.15,93.65,45c0,16.86,12.54,29,29.8,29C144.25,74,150,61.49,150,61.49L133.32,53a11.26,11.26,0,0,1-8.75,3.76c-5.89,0-9.16-3.49-9.16-6.28h36S151.63,47.75,151.63,45Zm-36.41-7.08s0.85-6.51,8.44-6.51c6,0,7.73,3.9,7.73,6.51H115.21Z"/></g></defs></svg>
