<?xml version="1.0" encoding="utf-8"?><!DOCTYPE svg PUBLIC "-//W3C//DTD SVG 1.1//EN" "http://www.w3.org/Graphics/SVG/1.1/DTD/svg11.dtd"><svg xmlns="http://www.w3.org/2000/svg" viewBox="0 0 133 62" style="fill:#f56"><title>Flexr Grid Logo for Use</title><path d="M124,48a5.3,5.3,0,0,1,5.5-4.8,5.6,5.6,0,0,1,2.5.3l1-10a8.8,8.8,0,0,0-9.3,3.5h-.2V34h-11V61H124Z"/><polygon points="76.2 34 85.8 47.1 75.5 61 88.7 61 93 54.9 97.1 61 110.5 61 100.4 47.1 110 34 97.1 34 93.3 39.6 89.5 34 76.2 34"/><path d="M76.8,47.5c0-7-4.6-14.5-14.1-14.5S47.8,39.6,47.8,47.5,54.1,62,62.7,62C73.1,62,76,55.7,76,55.7l-8.3-4.1a5.8,5.8,0,0,1-4.4,1.8c-2.9,0-4.5-1.8-4.5-3.1h18S76.8,48.9,76.8,47.5ZM58.6,44a3.9,3.9,0,0,1,4.2-3.3c3,0,3.8,2,3.8,3.3Z"/><rect x="33" y="25" width="12" height="36"/><rect y="51" width="12" height="10"/><rect y="38" width="21" height="10"/><rect y="25" width="30" height="10"/><path d="M0,0H2.7L7.3,12.3,11.9,0h2.7V14.7H12.8V2.5h0L8.1,14.7H6.5L1.9,2.5h0V14.7H0Z"/><path d="M27,14.6a2.4,2.4,0,0,1-1.3.3c-.9,0-1.5-.5-1.5-1.6a4.7,4.7,0,0,1-3.7,1.6c-1.9,0-3.5-.9-3.5-3S18.8,9,20.6,8.7s3.6-.2,3.6-1.6-1.3-1.8-2.4-1.8-2.6.5-2.7,2H17.4c.1-2.6,2.1-3.6,4.5-3.6s4,.4,4,2.9v5.5c0,.8,0,1.2.6,1.2H27ZM24.2,9.2c-.7.5-2,.5-3.2.7s-2.1.6-2.1,1.9,1,1.6,2.1,1.6S24.2,12,24.2,11Z"/><path d="M38.1,14.7H36.4V13.2h0a3.6,3.6,0,0,1-3.4,1.7c-3.3,0-4.9-2.6-4.9-5.6s1.6-5.5,4.9-5.5a4.1,4.1,0,0,1,3.4,1.7h0V0h1.7Zm-4.9-1.3c2.3,0,3.2-2,3.2-4s-.9-4-3.4-4-3.2,2-3.2,4.1S30.9,13.4,33.2,13.4Z"/><path d="M49.9,11.3a4.3,4.3,0,0,1-4.5,3.6c-3.4,0-5-2.3-5.1-5.6s2.1-5.5,5-5.5S50.2,7.3,50,9.9h-8a3.1,3.1,0,0,0,3.3,3.5,2.6,2.6,0,0,0,2.8-2.1Zm-1.7-3a3.1,3.1,0,0,0-3.1-3,3,3,0,0,0-3,3Z"/><path d="M68.1,14.7H66.2L64.1,6.2h0l-2.1,8.5H60L56.6,4.1h1.9l2.4,8.7h0l2.1-8.7H65l2.2,8.7h0l2.4-8.7h1.8Z"/><path d="M75,2.1H73.3V0H75ZM73.3,4.1H75V14.7H73.3Z"/><path d="M80.1,4.1h2.1V5.6H80.1v6.6c0,.8.2.9,1.3.9h.8v1.5H80.9c-1.8,0-2.5-.4-2.5-2.3V5.6H76.6V4.1h1.8V.9h1.7Z"/><path d="M84.2,0h1.7V5.6h0a3.6,3.6,0,0,1,3.4-1.8c2.8,0,3.7,1.6,3.7,3.9v7H91.3V7.5a2,2,0,0,0-2.2-2.1c-2.1,0-3.1,1.4-3.1,3.3v6H84.2Z"/></svg>
