<?xml version="1.0" encoding="UTF-8"?><svg xmlns="http://www.w3.org/2000/svg" viewBox="0 0 600 430"><defs><style><![CDATA[.cls-1{fill:#454559}.cls-1,.cls-2,.cls-3,.cls-4{stroke:#1c1c2d;stroke-width: 3px}.cls-2{fill:#353549}.cls-3{fill:#779}.cls-4,.cls-6{fill:#f56}.cls-5{fill:#eef}.cls-7{fill:#fa6}.cls-8{fill:#5eb}.cls-9{fill:#3dd}]]></style></defs>
<rect class="cls-1" x="3" y="3" width="594" height="424" rx="10"/>
<path class="cls-2" d="M97,3H587a10,10,0,0,1,10,10V417a10,10,0,0,1-10,10H97Z"/>
<path class="cls-1" d="M97,3H587a10,10,0,0,1,10,10V29H97Z"/>
<path class="cls-3" d="M16,16h40v10h-40z"/>
<path class="cls-3" d="M26,36h48v10h-48z"/>
<path class="cls-3" d="M26,76h40v10h-40z"/>
<path class="cls-4" d="M26,56h54v10h-54z"/>
<path class="cls-2" d="M97,3h120v26h-120z"/>
<path class="cls-4" d="M106,11h54v10h-54z"/>
<path class="cls-5" d="M140.8,71.3l-.7.2.7.2,5.4,1.8v2.6l-8.6-3.6V70.5l8.6-3.6v2.6Z"/>
<path class="cls-6" d="M155.6,74.8a.8.8,0,0,0-.1-.4l-.4-.3-.8-.3-1.2-.3-1.7-.5-1.3-.7a3.1,3.1,0,0,1-.9-.9,2.3,2.3,0,0,1-.3-1.2,2.7,2.7,0,0,1,.3-1.2,3.2,3.2,0,0,1,.9-1,4.6,4.6,0,0,1,1.4-.7l1.9-.3,2,.3a4.7,4.7,0,0,1,1.5.7,3.1,3.1,0,0,1,.9,1.1,2.9,2.9,0,0,1,.3,1.4h-2.7a1.3,1.3,0,0,0-.5-1,2.3,2.3,0,0,0-1.5-.4,2.5,2.5,0,0,0-1.4.3,1,1,0,0,0-.5.8,1,1,0,0,0,.1.4l.3.4.7.3,1.1.2,1.8.4,1.4.6a2.9,2.9,0,0,1,.9.9,2.5,2.5,0,0,1,.3,1.3,2.6,2.6,0,0,1-.3,1.3,3.1,3.1,0,0,1-1,1,4.8,4.8,0,0,1-1.5.7l-2,.2a6.5,6.5,0,0,1-2.1-.3,4.9,4.9,0,0,1-1.5-.8,3.5,3.5,0,0,1-.9-1.1,2.9,2.9,0,0,1-.3-1.3h2.6a1.5,1.5,0,0,0,.2.7l.5.5.7.3h.9a3,3,0,0,0,1.5-.3A1,1,0,0,0,155.6,74.8Z"/>
<path class="cls-6" d="M165.6,77.9a5.9,5.9,0,0,1-2.2-.4,5.2,5.2,0,0,1-1.7-1.1,4.8,4.8,0,0,1-1.1-1.6,5.2,5.2,0,0,1-.4-2v-.4a6.2,6.2,0,0,1,.4-2.2,5.1,5.1,0,0,1,1.1-1.7,4.8,4.8,0,0,1,1.6-1.1,5.1,5.1,0,0,1,2-.4,5.2,5.2,0,0,1,2,.4,4.2,4.2,0,0,1,1.5,1.1,4.6,4.6,0,0,1,.9,1.6,6.7,6.7,0,0,1,.3,2.1v1.2H163a2.9,2.9,0,0,0,.3,1l.6.8.8.5,1,.2h.8l.8-.2.7-.4.5-.5,1.4,1.5-.7.7-1,.6-1.2.4Zm-.3-8.8-.8.2-.7.5-.5.7a3.9,3.9,0,0,0-.3.9h4.5v-.2a2.6,2.6,0,0,0-.2-.8,1.9,1.9,0,0,0-.4-.7l-.7-.4Z"/>
<path class="cls-6" d="M177.1,75.7h.8l.6-.3.4-.5a1.3,1.3,0,0,0,.1-.7h2.6a3.1,3.1,0,0,1-.3,1.5,3.8,3.8,0,0,1-1,1.2,4.7,4.7,0,0,1-1.4.8,5.1,5.1,0,0,1-1.7.3,5.2,5.2,0,0,1-2.2-.4,4.3,4.3,0,0,1-1.5-1.1,4.9,4.9,0,0,1-.9-1.7,6.7,6.7,0,0,1-.3-2.1v-.3a6.8,6.8,0,0,1,.3-2.1,4.8,4.8,0,0,1,.9-1.7,4.4,4.4,0,0,1,1.5-1.1,5.1,5.1,0,0,1,2.1-.4,5.4,5.4,0,0,1,1.8.3,4.3,4.3,0,0,1,1.4.8,3.7,3.7,0,0,1,.9,1.3,4,4,0,0,1,.3,1.7H179a1.8,1.8,0,0,0-.1-.7l-.4-.6-.6-.4-.8-.2a1.8,1.8,0,0,0-1.7,1,3.2,3.2,0,0,0-.4,1,6.6,6.6,0,0,0-.1,1.2v.3a7,7,0,0,0,.1,1.2,3,3,0,0,0,.3,1,2,2,0,0,0,.7.7A2,2,0,0,0,177.1,75.7Z"/>
<path class="cls-6" d="M188.9,64.5v2.6h3.9v2h-3.9v4.5a3,3,0,0,0,.1,1,1.5,1.5,0,0,0,.4.6l.6.3h3l.3,1.9-.7.3-.8.2H190l-1.6-.2a3.1,3.1,0,0,1-1.2-.7,3.2,3.2,0,0,1-.8-1.2,5.2,5.2,0,0,1-.3-1.8V69.1h-2.4v-2h2.4V64.5Z"/>
<path class="cls-6" d="M195.9,67.1h5.8v8.4h2.9v2.2h-8.6V75.5h3V69.3h-3Zm2.8-2.7a1.5,1.5,0,0,1,.1-.6l.3-.5.5-.3h.6a1.6,1.6,0,0,1,1.1.4,1.5,1.5,0,0,1,0,2.1,1.6,1.6,0,0,1-1.1.4h-.6l-.5-.3-.3-.5A1.5,1.5,0,0,1,198.7,64.4Z"/>
<path class="cls-6" d="M206.4,72.3a6.6,6.6,0,0,1,.3-2.1,4.9,4.9,0,0,1,1-1.7,4.5,4.5,0,0,1,1.6-1.1,5.7,5.7,0,0,1,4.2,0,4.5,4.5,0,0,1,1.6,1.1,4.9,4.9,0,0,1,1,1.7,6.6,6.6,0,0,1,.3,2.1v.2a6.7,6.7,0,0,1-.3,2.1,5,5,0,0,1-1,1.7,4.4,4.4,0,0,1-1.6,1.1,5.2,5.2,0,0,1-2.1.4,5.3,5.3,0,0,1-2.1-.4,4.4,4.4,0,0,1-1.6-1.1,4.9,4.9,0,0,1-1-1.7,6.7,6.7,0,0,1-.3-2.1Zm2.7.2a5.8,5.8,0,0,0,.1,1.2,3.2,3.2,0,0,0,.4,1,2,2,0,0,0,.7.7l1,.3,1-.3a2,2,0,0,0,.7-.7,3.2,3.2,0,0,0,.4-1,5.8,5.8,0,0,0,.1-1.2v-.2a5.7,5.7,0,0,0-.1-1.2,3.3,3.3,0,0,0-.4-1,2,2,0,0,0-.7-.7l-1-.3-1,.3a2,2,0,0,0-.7.7,3.2,3.2,0,0,0-.4,1,5.7,5.7,0,0,0-.1,1.2Z"/>
<path class="cls-6" d="M221.2,67.1l.2,1.5a4,4,0,0,1,1.4-1.2,3.7,3.7,0,0,1,1.8-.4l1.5.2a2.9,2.9,0,0,1,1.1.7,3.5,3.5,0,0,1,.8,1.3,6.2,6.2,0,0,1,.3,2v6.5h-2.7V71.2a3.2,3.2,0,0,0-.1-1,1.5,1.5,0,0,0-.4-.6l-.6-.3h-.8a2.4,2.4,0,0,0-1.2.3,2.2,2.2,0,0,0-.8.8v7.5h-2.7V67.1Z"/>
<path class="cls-5" d="M230.8,69.5V66.9l8.8,3.6v2.2l-8.8,3.6V73.6l5.6-1.9.6-.2-.6-.2Z"/>
<path class="cls-5" d="M176.8,105.3l-.7.2.7.2,5.4,1.8v2.6l-8.6-3.6v-2.2l8.6-3.6v2.6Z"/>
<path class="cls-6" d="M184.6,106.3a8.2,8.2,0,0,1,.3-2.2,5.1,5.1,0,0,1,.8-1.7,3.7,3.7,0,0,1,1.3-1.1,3.8,3.8,0,0,1,1.8-.4,3.4,3.4,0,0,1,1.5.3,3.5,3.5,0,0,1,1.1.8V96.7h2.7v15h-2.5v-1.1a3.6,3.6,0,0,1-1.2,1,3.4,3.4,0,0,1-1.6.3,3.7,3.7,0,0,1-1.7-.4,3.9,3.9,0,0,1-1.3-1.1,5.2,5.2,0,0,1-.8-1.7,7.7,7.7,0,0,1-.3-2.1Zm2.7.2a6.4,6.4,0,0,0,.1,1.2,3.1,3.1,0,0,0,.4,1,1.9,1.9,0,0,0,.7.7l1,.2a2.1,2.1,0,0,0,1.2-.3,2.1,2.1,0,0,0,.7-.8v-4.3a2.1,2.1,0,0,0-.7-.8,2.1,2.1,0,0,0-1.2-.3l-1,.2a1.9,1.9,0,0,0-.7.7,3.3,3.3,0,0,0-.4,1,6.3,6.3,0,0,0-.1,1.2Z"/>
<path class="cls-6" d="M197.1,101.1h5.8v8.4h2.9v2.2h-8.6v-2.2h3v-6.1h-3Zm2.8-2.7a1.5,1.5,0,0,1,.1-.6l.3-.5.5-.3h.6a1.6,1.6,0,0,1,1.1.4,1.5,1.5,0,0,1,0,2.1,1.6,1.6,0,0,1-1.1.4h-.6l-.5-.3L200,99A1.5,1.5,0,0,1,199.9,98.4Z"/>
<path class="cls-6" d="M211.4,108.5v0l2.3-7.5h2.8l-4,10.6h-2.5l-4-10.6h2.8Z"/>
<path class="cls-7" d="M235.6,109.7h.8l.6-.3.4-.5a1.3,1.3,0,0,0,.1-.7h2.6a3.1,3.1,0,0,1-.3,1.5,3.8,3.8,0,0,1-1,1.2,4.7,4.7,0,0,1-1.4.8,5.1,5.1,0,0,1-1.7.3,5.2,5.2,0,0,1-2.2-.4,4.3,4.3,0,0,1-1.5-1.1,4.9,4.9,0,0,1-.9-1.7,6.7,6.7,0,0,1-.3-2.1v-.3a6.8,6.8,0,0,1,.3-2.1,4.8,4.8,0,0,1,.9-1.7,4.4,4.4,0,0,1,1.5-1.1,5.1,5.1,0,0,1,2.1-.4,5.4,5.4,0,0,1,1.8.3,4.3,4.3,0,0,1,1.4.8,3.7,3.7,0,0,1,.9,1.3,4,4,0,0,1,.3,1.7h-2.6a1.8,1.8,0,0,0-.1-.7l-.4-.6-.6-.4-.8-.2a1.8,1.8,0,0,0-1.7,1,3.2,3.2,0,0,0-.4,1,6.6,6.6,0,0,0-.1,1.2v.3a7,7,0,0,0,.1,1.2,3,3,0,0,0,.3,1,2,2,0,0,0,.7.7A2,2,0,0,0,235.6,109.7Z"/>
<path class="cls-7" d="M242.7,96.7h5.9v12.8h3v2.2h-8.9v-2.2h3.2V98.9h-3.2Z"/>
<path class="cls-7" d="M260.5,111.7l-.2-.4v-.5l-.5.5-.6.4-.8.3h-.9l-1.5-.2-1.2-.7a3,3,0,0,1-.8-1,2.9,2.9,0,0,1-.3-1.3,3,3,0,0,1,1.2-2.6,6.3,6.3,0,0,1,3.7-.9h1.5v-.6a1.5,1.5,0,0,0-.5-1.2,2.1,2.1,0,0,0-1.4-.4,1.7,1.7,0,0,0-1.2.4,1.2,1.2,0,0,0-.4,1h-2.7a2.9,2.9,0,0,1,.3-1.3,3.1,3.1,0,0,1,.9-1.1,4.4,4.4,0,0,1,1.4-.7,6.1,6.1,0,0,1,1.9-.3l1.8.2a4.3,4.3,0,0,1,1.4.7,3.2,3.2,0,0,1,.9,1.2,3.6,3.6,0,0,1,.3,1.6v4.5a7.6,7.6,0,0,0,.1,1.4,3.6,3.6,0,0,0,.3,1v.2Zm-2.6-1.9h.8l.6-.3.5-.4.3-.4v-1.8h-2.5l-.7.3-.4.5a1.6,1.6,0,0,0-.1.7,1.2,1.2,0,0,0,.4.9A1.7,1.7,0,0,0,257.9,109.8Z"/>
<path class="cls-7" d="M272.3,108.8a.8.8,0,0,0-.1-.4l-.4-.3-.8-.3-1.2-.3-1.7-.5-1.3-.7a3.1,3.1,0,0,1-.9-.9,2.3,2.3,0,0,1-.3-1.2,2.7,2.7,0,0,1,.3-1.2,3.2,3.2,0,0,1,.9-1,4.6,4.6,0,0,1,1.4-.7l1.9-.3,2,.3a4.7,4.7,0,0,1,1.5.7,3.1,3.1,0,0,1,.9,1.1,2.9,2.9,0,0,1,.3,1.4h-2.7a1.3,1.3,0,0,0-.5-1,2.3,2.3,0,0,0-1.5-.4,2.5,2.5,0,0,0-1.4.3,1,1,0,0,0-.5.8,1,1,0,0,0,.1.4l.3.4.7.3,1.1.2,1.8.4,1.4.6a2.9,2.9,0,0,1,.9.9,2.5,2.5,0,0,1,.3,1.3,2.6,2.6,0,0,1-.3,1.3,3.1,3.1,0,0,1-1,1,4.8,4.8,0,0,1-1.5.7l-2,.2a6.5,6.5,0,0,1-2.1-.3,4.9,4.9,0,0,1-1.5-.8,3.5,3.5,0,0,1-.9-1.1,2.9,2.9,0,0,1-.3-1.3h2.6a1.5,1.5,0,0,0,.2.7l.5.5.7.3h.9a3,3,0,0,0,1.5-.3A1,1,0,0,0,272.3,108.8Z"/>
<path class="cls-7" d="M284.1,108.8a.8.8,0,0,0-.1-.4l-.4-.3-.8-.3-1.2-.3-1.7-.5-1.3-.7a3.1,3.1,0,0,1-.9-.9,2.3,2.3,0,0,1-.3-1.2,2.7,2.7,0,0,1,.3-1.2,3.2,3.2,0,0,1,.9-1,4.6,4.6,0,0,1,1.4-.7l1.9-.3,2,.3a4.7,4.7,0,0,1,1.5.7,3.1,3.1,0,0,1,.9,1.1,2.9,2.9,0,0,1,.3,1.4H284a1.3,1.3,0,0,0-.5-1,2.3,2.3,0,0,0-1.5-.4,2.5,2.5,0,0,0-1.4.3,1,1,0,0,0-.5.8,1,1,0,0,0,.1.4l.3.4.7.3,1.1.2,1.8.4,1.4.6a2.9,2.9,0,0,1,.9.9,2.5,2.5,0,0,1,.3,1.3,2.6,2.6,0,0,1-.3,1.3,3.1,3.1,0,0,1-1,1,4.8,4.8,0,0,1-1.5.7l-2,.2a6.5,6.5,0,0,1-2.1-.3,4.9,4.9,0,0,1-1.5-.8,3.5,3.5,0,0,1-.9-1.1,2.9,2.9,0,0,1-.3-1.3h2.6a1.5,1.5,0,0,0,.2.7l.5.5.7.3h.9a3,3,0,0,0,1.5-.3A1,1,0,0,0,284.1,108.8Z"/>
<path class="cls-5" d="M298.5,104.7h-9.2v-2.2h9.2Zm0,4.2h-9.2v-2.2h9.2Z"/>
<path class="cls-8" d="M303.9,98.1a4.1,4.1,0,0,1-.1,1,5.5,5.5,0,0,1-.4,1l-.6,1-.7.8-1.2-.8a7,7,0,0,0,.6-1.4,5.4,5.4,0,0,0,.2-1.7V96.4h2.2Zm3.5,0a4.1,4.1,0,0,1-.1,1,5.5,5.5,0,0,1-.4,1l-.6,1-.7.8-1.2-.8a7,7,0,0,0,.6-1.4,5.4,5.4,0,0,0,.2-1.7V96.4h2.2Z"/>
<path class="cls-8" d="M316.6,100.9h1.1l.8.2-.4,2.7-1.1-.2H316a3.4,3.4,0,0,0-1.8.4,2.7,2.7,0,0,0-1,1.3v6.3h-2.7V101.1H313v1.7a4.8,4.8,0,0,1,1.5-1.4A3.9,3.9,0,0,1,316.6,100.9Z"/>
<path class="cls-8" d="M320.2,106.3a6.6,6.6,0,0,1,.3-2.1,4.9,4.9,0,0,1,1-1.7,4.5,4.5,0,0,1,1.6-1.1,5.7,5.7,0,0,1,4.2,0,4.5,4.5,0,0,1,1.6,1.1,4.9,4.9,0,0,1,1,1.7,6.6,6.6,0,0,1,.3,2.1v.2a6.7,6.7,0,0,1-.3,2.1,5,5,0,0,1-1,1.7,4.4,4.4,0,0,1-1.6,1.1,5.2,5.2,0,0,1-2.1.4,5.3,5.3,0,0,1-2.1-.4,4.4,4.4,0,0,1-1.6-1.1,4.9,4.9,0,0,1-1-1.7,6.7,6.7,0,0,1-.3-2.1Zm2.7.2a5.8,5.8,0,0,0,.1,1.2,3.2,3.2,0,0,0,.4,1,2,2,0,0,0,.7.7l1,.3,1-.3a2,2,0,0,0,.7-.7,3.2,3.2,0,0,0,.4-1,5.8,5.8,0,0,0,.1-1.2v-.2a5.7,5.7,0,0,0-.1-1.2,3.3,3.3,0,0,0-.4-1,2,2,0,0,0-.7-.7l-1-.3-1,.3a2,2,0,0,0-.7.7,3.2,3.2,0,0,0-.4,1,5.7,5.7,0,0,0-.1,1.2Z"/>
<path class="cls-8" d="M339.4,108.4l.9-7.3h2.5l-1.9,10.6h-2.4l-1.4-6.7-1.3,6.7h-2.4l-1.9-10.6H334l.9,7.3,1.3-7.3h1.8Z"/>
<path class="cls-8" d="M348.4,98.1a4.2,4.2,0,0,1-.1,1,5.5,5.5,0,0,1-.4,1l-.6,1-.7.8-1.2-.8a7,7,0,0,0,.6-1.4,5.4,5.4,0,0,0,.2-1.7V96.4h2.2Zm3.5,0a4.2,4.2,0,0,1-.1,1,5.5,5.5,0,0,1-.4,1l-.6,1-.7.8-1.2-.8a7.1,7.1,0,0,0,.6-1.4,5.4,5.4,0,0,0,.2-1.7V96.4h2.2Z"/>
<path class="cls-5" d="M354.3,103.5v-2.6l8.8,3.6v2.2l-8.8,3.6v-2.6l5.6-1.9.6-.2-.6-.2Z"/>
<path class="cls-5" d="M212.8,139.3l-.7.2.7.2,5.4,1.8v2.6l-8.6-3.6v-2.2l8.6-3.6v2.6Z"/>
<path class="cls-6" d="M220.6,140.3a8.2,8.2,0,0,1,.3-2.2,5.1,5.1,0,0,1,.8-1.7,3.7,3.7,0,0,1,1.3-1.1,3.8,3.8,0,0,1,1.8-.4,3.4,3.4,0,0,1,1.5.3,3.5,3.5,0,0,1,1.1.8v-5.4h2.7v15h-2.5v-1.1a3.6,3.6,0,0,1-1.2,1,3.4,3.4,0,0,1-1.6.3,3.7,3.7,0,0,1-1.7-.4,3.9,3.9,0,0,1-1.3-1.1,5.2,5.2,0,0,1-.8-1.7,7.7,7.7,0,0,1-.3-2.1Zm2.7.2a6.4,6.4,0,0,0,.1,1.2,3.1,3.1,0,0,0,.4,1,1.9,1.9,0,0,0,.7.7l1,.2a2.1,2.1,0,0,0,1.2-.3,2.1,2.1,0,0,0,.7-.8v-4.3a2.1,2.1,0,0,0-.7-.8,2.1,2.1,0,0,0-1.2-.3l-1,.2a1.9,1.9,0,0,0-.7.7,3.3,3.3,0,0,0-.4,1,6.3,6.3,0,0,0-.1,1.2Z"/>
<path class="cls-6" d="M233.1,135.1h5.8v8.4h2.9v2.2h-8.6v-2.2h3v-6.1h-3Zm2.8-2.7a1.5,1.5,0,0,1,.1-.6l.3-.5.5-.3h.6a1.6,1.6,0,0,1,1.1.4,1.5,1.5,0,0,1,0,2.1,1.6,1.6,0,0,1-1.1.4h-.6l-.5-.3-.3-.5A1.5,1.5,0,0,1,235.9,132.4Z"/>
<path class="cls-6" d="M247.4,142.5v0l2.3-7.5h2.8l-4,10.6h-2.5l-4-10.6h2.8Z"/>
<path class="cls-7" d="M271.6,143.7h.8l.6-.3.4-.5a1.3,1.3,0,0,0,.1-.7h2.6a3.1,3.1,0,0,1-.3,1.5,3.8,3.8,0,0,1-1,1.2,4.7,4.7,0,0,1-1.4.8,5.1,5.1,0,0,1-1.7.3,5.2,5.2,0,0,1-2.2-.4,4.3,4.3,0,0,1-1.5-1.1,4.9,4.9,0,0,1-.9-1.7,6.7,6.7,0,0,1-.3-2.1v-.3a6.8,6.8,0,0,1,.3-2.1,4.8,4.8,0,0,1,.9-1.7,4.4,4.4,0,0,1,1.5-1.1,5.1,5.1,0,0,1,2.1-.4,5.4,5.4,0,0,1,1.8.3,4.3,4.3,0,0,1,1.4.8,3.7,3.7,0,0,1,.9,1.3,4,4,0,0,1,.3,1.7h-2.6a1.8,1.8,0,0,0-.1-.7l-.4-.6-.6-.4-.8-.2a1.8,1.8,0,0,0-1.7,1,3.2,3.2,0,0,0-.4,1,6.6,6.6,0,0,0-.1,1.2v.3a7,7,0,0,0,.1,1.2,3,3,0,0,0,.3,1,2,2,0,0,0,.7.7A2,2,0,0,0,271.6,143.7Z"/>
<path class="cls-7" d="M278.7,130.7h5.9v12.8h3v2.2h-8.9v-2.2h3.2V132.9h-3.2Z"/>
<path class="cls-7" d="M296.5,145.7l-.2-.4v-.5l-.5.5-.6.4-.8.3h-.9l-1.5-.2-1.2-.7a3,3,0,0,1-.8-1,2.9,2.9,0,0,1-.3-1.3,3,3,0,0,1,1.2-2.6,6.3,6.3,0,0,1,3.7-.9h1.5v-.6a1.5,1.5,0,0,0-.5-1.2,2.1,2.1,0,0,0-1.4-.4,1.7,1.7,0,0,0-1.2.4,1.2,1.2,0,0,0-.4,1h-2.7a2.9,2.9,0,0,1,.3-1.3,3.1,3.1,0,0,1,.9-1.1,4.4,4.4,0,0,1,1.4-.7,6.1,6.1,0,0,1,1.9-.3l1.8.2a4.3,4.3,0,0,1,1.4.7,3.2,3.2,0,0,1,.9,1.2,3.6,3.6,0,0,1,.3,1.6v4.5a7.6,7.6,0,0,0,.1,1.4,3.6,3.6,0,0,0,.3,1v.2Zm-2.6-1.9h.8l.6-.3.5-.4.3-.4v-1.8h-2.5l-.7.3-.4.5a1.6,1.6,0,0,0-.1.7,1.2,1.2,0,0,0,.4.9A1.7,1.7,0,0,0,293.9,143.8Z"/>
<path class="cls-7" d="M308.3,142.8a.8.8,0,0,0-.1-.4l-.4-.3-.8-.3-1.2-.3-1.7-.5-1.3-.7a3.1,3.1,0,0,1-.9-.9,2.3,2.3,0,0,1-.3-1.2,2.7,2.7,0,0,1,.3-1.2,3.2,3.2,0,0,1,.9-1,4.6,4.6,0,0,1,1.4-.7l1.9-.3,2,.3a4.7,4.7,0,0,1,1.5.7,3.1,3.1,0,0,1,.9,1.1,2.9,2.9,0,0,1,.3,1.4h-2.7a1.3,1.3,0,0,0-.5-1,2.3,2.3,0,0,0-1.5-.4,2.5,2.5,0,0,0-1.4.3,1,1,0,0,0-.5.8,1,1,0,0,0,.1.4l.3.4.7.3,1.1.2,1.8.4,1.4.6a2.9,2.9,0,0,1,.9.9,2.5,2.5,0,0,1,.3,1.3,2.6,2.6,0,0,1-.3,1.3,3.1,3.1,0,0,1-1,1,4.8,4.8,0,0,1-1.5.7l-2,.2a6.5,6.5,0,0,1-2.1-.3,4.9,4.9,0,0,1-1.5-.8,3.5,3.5,0,0,1-.9-1.1,2.9,2.9,0,0,1-.3-1.3h2.6a1.5,1.5,0,0,0,.2.7l.5.5.7.3h.9a3,3,0,0,0,1.5-.3A1,1,0,0,0,308.3,142.8Z"/>
<path class="cls-7" d="M320.1,142.8a.8.8,0,0,0-.1-.4l-.4-.3-.8-.3-1.2-.3-1.7-.5-1.3-.7a3.1,3.1,0,0,1-.9-.9,2.3,2.3,0,0,1-.3-1.2,2.7,2.7,0,0,1,.3-1.2,3.2,3.2,0,0,1,.9-1,4.6,4.6,0,0,1,1.4-.7l1.9-.3,2,.3a4.7,4.7,0,0,1,1.5.7,3.1,3.1,0,0,1,.9,1.1,2.9,2.9,0,0,1,.3,1.4H320a1.3,1.3,0,0,0-.5-1,2.3,2.3,0,0,0-1.5-.4,2.5,2.5,0,0,0-1.4.3,1,1,0,0,0-.5.8,1,1,0,0,0,.1.4l.3.4.7.3,1.1.2,1.8.4,1.4.6a2.9,2.9,0,0,1,.9.9,2.5,2.5,0,0,1,.3,1.3,2.6,2.6,0,0,1-.3,1.3,3.1,3.1,0,0,1-1,1,4.8,4.8,0,0,1-1.5.7l-2,.2a6.5,6.5,0,0,1-2.1-.3,4.9,4.9,0,0,1-1.5-.8,3.5,3.5,0,0,1-.9-1.1,2.9,2.9,0,0,1-.3-1.3h2.6a1.5,1.5,0,0,0,.2.7l.5.5.7.3h.9a3,3,0,0,0,1.5-.3A1,1,0,0,0,320.1,142.8Z"/>
<path class="cls-5" d="M334.5,138.7h-9.2v-2.2h9.2Zm0,4.2h-9.2v-2.2h9.2Z"/>
<path class="cls-8" d="M339.9,132.1a4.1,4.1,0,0,1-.1,1,5.5,5.5,0,0,1-.4,1l-.6,1-.7.8-1.2-.8a7,7,0,0,0,.6-1.4,5.4,5.4,0,0,0,.2-1.7v-1.7h2.2Zm3.5,0a4.1,4.1,0,0,1-.1,1,5.5,5.5,0,0,1-.4,1l-.6,1-.7.8-1.2-.8a7,7,0,0,0,.6-1.4,5.4,5.4,0,0,0,.2-1.7v-1.7h2.2Z"/>
<path class="cls-8" d="M350,143.7h.8l.6-.3.4-.5a1.3,1.3,0,0,0,.1-.7h2.6a3.2,3.2,0,0,1-.3,1.5,3.8,3.8,0,0,1-1,1.2,4.7,4.7,0,0,1-1.4.8,5.1,5.1,0,0,1-1.7.3,5.2,5.2,0,0,1-2.2-.4,4.3,4.3,0,0,1-1.5-1.1,4.9,4.9,0,0,1-.9-1.7,6.7,6.7,0,0,1-.3-2.1v-.3a6.8,6.8,0,0,1,.3-2.1,4.8,4.8,0,0,1,.9-1.7,4.4,4.4,0,0,1,1.5-1.1,5.1,5.1,0,0,1,2.1-.4,5.4,5.4,0,0,1,1.8.3,4.3,4.3,0,0,1,1.4.8,3.7,3.7,0,0,1,.9,1.3,4,4,0,0,1,.3,1.7h-2.6a1.8,1.8,0,0,0-.1-.7l-.4-.6-.6-.4-.8-.2a2,2,0,0,0-1.1.3,2,2,0,0,0-.7.7,3.2,3.2,0,0,0-.4,1,6.6,6.6,0,0,0-.1,1.2v.3a7,7,0,0,0,.1,1.2,3,3,0,0,0,.3,1,2,2,0,0,0,.7.7A2,2,0,0,0,350,143.7Z"/>
<path class="cls-8" d="M356.6,140.3a6.6,6.6,0,0,1,.3-2.1,4.9,4.9,0,0,1,1-1.7,4.5,4.5,0,0,1,1.6-1.1,5.7,5.7,0,0,1,4.2,0,4.5,4.5,0,0,1,1.6,1.1,4.9,4.9,0,0,1,1,1.7,6.6,6.6,0,0,1,.3,2.1v.2a6.6,6.6,0,0,1-.3,2.1,5,5,0,0,1-1,1.7,4.4,4.4,0,0,1-1.6,1.1,5.2,5.2,0,0,1-2.1.4,5.3,5.3,0,0,1-2.1-.4,4.4,4.4,0,0,1-1.6-1.1,4.9,4.9,0,0,1-1-1.7,6.6,6.6,0,0,1-.3-2.1Zm2.7.2a5.8,5.8,0,0,0,.1,1.2,3.2,3.2,0,0,0,.4,1,2,2,0,0,0,.7.7l1,.3,1-.3a2,2,0,0,0,.7-.7,3.2,3.2,0,0,0,.4-1,5.8,5.8,0,0,0,.1-1.2v-.2a5.6,5.6,0,0,0-.1-1.2,3.3,3.3,0,0,0-.4-1,2,2,0,0,0-.7-.7l-1-.3-1,.3a2.1,2.1,0,0,0-.7.7,3.2,3.2,0,0,0-.4,1,5.6,5.6,0,0,0-.1,1.2Z"/>
<path class="cls-8" d="M368.8,130.7h5.9v12.8h3v2.2h-8.9v-2.2h3.2V132.9h-3.2Z"/>
<path class="cls-8" d="M387.6,140.5h-8.1v-2.2h8.1Z"/>
<path class="cls-8" d="M395.1,145.7h-2.7V134.8l-3.6,1.3v-2.4l6.2-2.2h.1Z"/>
<path class="cls-8" d="M408.1,145.7h-9.7v-1.9l4.6-4.9.9-1.1.6-.9.3-.7a2.3,2.3,0,0,0,.1-.7,2.5,2.5,0,0,0-.1-.8l-.4-.6-.6-.4h-.8a2.1,2.1,0,0,0-1.7.6,2.6,2.6,0,0,0-.6,1.7h-2.7a4.5,4.5,0,0,1,1.4-3.3,4.8,4.8,0,0,1,1.6-1,6.1,6.1,0,0,1,4-.1,3.8,3.8,0,0,1,1.4.8,3.6,3.6,0,0,1,.9,1.3,4.7,4.7,0,0,1,.3,1.7,4.1,4.1,0,0,1-.2,1.3,5.8,5.8,0,0,1-.6,1.3l-1,1.3-1.3,1.4-2.7,2.8h6.2Z"/>
<path class="cls-8" d="M413.8,132.1a4.2,4.2,0,0,1-.1,1,5.5,5.5,0,0,1-.4,1l-.6,1-.7.8-1.2-.8a7,7,0,0,0,.6-1.4,5.4,5.4,0,0,0,.2-1.7v-1.7h2.2Zm3.5,0a4.2,4.2,0,0,1-.1,1,5.5,5.5,0,0,1-.4,1l-.6,1-.7.8-1.2-.8a7,7,0,0,0,.6-1.4,5.4,5.4,0,0,0,.2-1.7v-1.7h2.2Z"/>
<path class="cls-5" d="M419.6,137.5v-2.6l8.8,3.6v2.2l-8.8,3.6v-2.6l5.6-1.9.6-.2-.6-.2Z"/>
<path class="cls-9" d="M249.9,175.2l.3,1.1,2.8-7.3h3l-5.4,12.1-.5.9-.7.9-1,.7a3.4,3.4,0,0,1-1.4.3h-1.3l.3-2.1h.8l.6-.2.4-.4.3-.4v-.2l.7-1.2-4.5-10.1h3Z"/>
<path class="cls-9" d="M256.7,174.3a6.6,6.6,0,0,1,.3-2.1,4.9,4.9,0,0,1,1-1.7,4.5,4.5,0,0,1,1.6-1.1,5.7,5.7,0,0,1,4.2,0,4.5,4.5,0,0,1,1.6,1.1,4.9,4.9,0,0,1,1,1.7,6.6,6.6,0,0,1,.3,2.1v.2a6.7,6.7,0,0,1-.3,2.1,5,5,0,0,1-1,1.7,4.4,4.4,0,0,1-1.6,1.1,5.2,5.2,0,0,1-2.1.4,5.3,5.3,0,0,1-2.1-.4,4.4,4.4,0,0,1-1.6-1.1,4.9,4.9,0,0,1-1-1.7,6.7,6.7,0,0,1-.3-2.1Zm2.7.2a5.8,5.8,0,0,0,.1,1.2,3.2,3.2,0,0,0,.4,1,2,2,0,0,0,.7.7l1,.3,1-.3a2,2,0,0,0,.7-.7,3.2,3.2,0,0,0,.4-1,5.8,5.8,0,0,0,.1-1.2v-.2a5.7,5.7,0,0,0-.1-1.2,3.3,3.3,0,0,0-.4-1,2,2,0,0,0-.7-.7l-1-.3-1,.3a2,2,0,0,0-.7.7,3.2,3.2,0,0,0-.4,1,5.7,5.7,0,0,0-.1,1.2Z"/>
<path class="cls-9" d="M275.7,178.2a4.1,4.1,0,0,1-1.3,1.2,3.2,3.2,0,0,1-1.7.4l-1.5-.3a2.9,2.9,0,0,1-1.2-.8,3.8,3.8,0,0,1-.8-1.4,6.9,6.9,0,0,1-.3-2.1v-6.2h2.7v6.3a5.3,5.3,0,0,0,.1,1.1,1.8,1.8,0,0,0,.3.7l.5.4h.8a2.5,2.5,0,0,0,1.3-.3,2,2,0,0,0,.8-.8v-7.4h2.7v10.6h-2.5Z"/>
<path class="cls-9" d="M288,168.9h1.1l.8.2-.4,2.7-1.1-.2h-1.1a3.4,3.4,0,0,0-1.8.4,2.7,2.7,0,0,0-1,1.3v6.3h-2.7V169.1h2.5v1.7a4.8,4.8,0,0,1,1.5-1.4A3.9,3.9,0,0,1,288,168.9Z"/>
<path class="cls-9" d="M311.2,176.8a.8.8,0,0,0-.1-.4l-.4-.3-.8-.3-1.2-.3L307,175l-1.3-.7a3.1,3.1,0,0,1-.9-.9,2.3,2.3,0,0,1-.3-1.2,2.7,2.7,0,0,1,.3-1.2,3.2,3.2,0,0,1,.9-1,4.6,4.6,0,0,1,1.4-.7l1.9-.3,2,.3a4.7,4.7,0,0,1,1.5.7,3.1,3.1,0,0,1,.9,1.1,2.9,2.9,0,0,1,.3,1.4h-2.7a1.3,1.3,0,0,0-.5-1,2.3,2.3,0,0,0-1.5-.4,2.5,2.5,0,0,0-1.4.3,1,1,0,0,0-.5.8,1,1,0,0,0,.1.4l.3.4.7.3,1.1.2,1.8.4,1.4.6a2.9,2.9,0,0,1,.9.9,2.5,2.5,0,0,1,.3,1.3,2.6,2.6,0,0,1-.3,1.3,3.1,3.1,0,0,1-1,1,4.8,4.8,0,0,1-1.5.7l-2,.2a6.5,6.5,0,0,1-2.1-.3,4.9,4.9,0,0,1-1.5-.8,3.5,3.5,0,0,1-.9-1.1,2.9,2.9,0,0,1-.3-1.3h2.6a1.5,1.5,0,0,0,.2.7l.5.5.7.3h.9a3,3,0,0,0,1.5-.3A1,1,0,0,0,311.2,176.8Z"/>
<path class="cls-9" d="M321.1,166.5v2.6H325v2h-3.9v4.5a3,3,0,0,0,.1,1,1.5,1.5,0,0,0,.4.6l.6.3h3l.3,1.9-.7.3-.8.2h-1.8l-1.6-.2a3.1,3.1,0,0,1-1.2-.7,3.2,3.2,0,0,1-.8-1.2,5.2,5.2,0,0,1-.3-1.8v-4.8h-2.4v-2h2.4v-2.6Z"/>
<path class="cls-9" d="M334.2,178.2a4.1,4.1,0,0,1-1.3,1.2,3.2,3.2,0,0,1-1.7.4l-1.5-.3a2.9,2.9,0,0,1-1.2-.8,3.8,3.8,0,0,1-.8-1.4,6.9,6.9,0,0,1-.3-2.1v-6.2h2.7v6.3a5.3,5.3,0,0,0,.1,1.1,1.8,1.8,0,0,0,.3.7l.5.4h.8a2.5,2.5,0,0,0,1.3-.3,2,2,0,0,0,.8-.8v-7.4h2.7v10.6h-2.5Z"/>
<path class="cls-9" d="M341.8,179.7v-8.6H339v-2h2.8v-.6a4.8,4.8,0,0,1,.3-1.8,3.6,3.6,0,0,1,.9-1.3,4.1,4.1,0,0,1,1.5-.8,6.5,6.5,0,0,1,2-.3h2.5l-.2,2.1H347a2.7,2.7,0,0,0-1.8.5,2,2,0,0,0-.6,1.5v.6h3.8v2h-3.8v8.6Z"/>
<path class="cls-9" d="M353.4,179.7v-8.6h-2.8v-2h2.8v-.6a4.8,4.8,0,0,1,.3-1.8,3.6,3.6,0,0,1,.9-1.3,4.1,4.1,0,0,1,1.5-.8,6.5,6.5,0,0,1,2-.3h2.5l-.2,2.1h-1.9a2.6,2.6,0,0,0-1.8.5,2,2,0,0,0-.6,1.5v.6H360v2h-3.8v8.6Z"/>
<path class="cls-9" d="M363.9,178.3a1.6,1.6,0,0,1,.1-.6l.3-.5.5-.3h1.3l.5.3.3.5a1.5,1.5,0,0,1,.1.6,1.5,1.5,0,0,1-.1.6l-.3.5-.5.3h-1.3l-.5-.3-.3-.5A1.6,1.6,0,0,1,363.9,178.3Zm2.8-3.6h-2.5l-.2-9.2h2.8Z"/>
<path class="cls-5" d="M212.8,207.3l-.7.2.7.2,5.4,1.8v2.6l-8.6-3.6v-2.2l8.6-3.6v2.6Z"/>
<path class="cls-5" d="M223,214.9h-2.5l5.3-15.4h2.5Z"/>
<path class="cls-6" d="M229.4,208.3a8.2,8.2,0,0,1,.3-2.2,5.1,5.1,0,0,1,.8-1.7,3.7,3.7,0,0,1,1.3-1.1,3.8,3.8,0,0,1,1.8-.4,3.4,3.4,0,0,1,1.5.3,3.5,3.5,0,0,1,1.1.8v-5.4h2.7v15h-2.5v-1.1a3.6,3.6,0,0,1-1.2,1,3.4,3.4,0,0,1-1.6.3,3.7,3.7,0,0,1-1.7-.4,3.9,3.9,0,0,1-1.3-1.1,5.2,5.2,0,0,1-.8-1.7,7.7,7.7,0,0,1-.3-2.1Zm2.7.2a6.4,6.4,0,0,0,.1,1.2,3.1,3.1,0,0,0,.4,1,1.9,1.9,0,0,0,.7.7l1,.2a2.1,2.1,0,0,0,1.2-.3,2.1,2.1,0,0,0,.7-.8v-4.3a2.1,2.1,0,0,0-.7-.8,2.1,2.1,0,0,0-1.2-.3l-1,.2a1.9,1.9,0,0,0-.7.7,3.3,3.3,0,0,0-.4,1,6.3,6.3,0,0,0-.1,1.2Z"/>
<path class="cls-6" d="M241.9,203.1h5.8v8.4h2.9v2.2h-8.6v-2.2h3v-6.1h-3Zm2.8-2.7a1.5,1.5,0,0,1,.1-.6l.3-.5.5-.3h.6a1.6,1.6,0,0,1,1.1.4,1.5,1.5,0,0,1,0,2.1,1.6,1.6,0,0,1-1.1.4h-.6l-.5-.3-.3-.5A1.5,1.5,0,0,1,244.7,200.4Z"/>
<path class="cls-6" d="M256.2,210.5v0l2.3-7.5h2.8l-4,10.6h-2.5l-4-10.6h2.8Z"/>
<path class="cls-5" d="M263.7,205.5v-2.6l8.8,3.6v2.2l-8.8,3.6v-2.6l5.6-1.9.6-.2-.6-.2Z"/>
<path class="cls-5" d="M176.8,241.3l-.7.2.7.2,5.4,1.8v2.6l-8.6-3.6v-2.2l8.6-3.6v2.6Z"/>
<path class="cls-5" d="M187,248.9h-2.5l5.3-15.4h2.5Z"/>
<path class="cls-6" d="M193.4,242.3a8.2,8.2,0,0,1,.3-2.2,5.1,5.1,0,0,1,.8-1.7,3.7,3.7,0,0,1,1.3-1.1,3.8,3.8,0,0,1,1.8-.4,3.4,3.4,0,0,1,1.5.3,3.5,3.5,0,0,1,1.1.8v-5.4h2.7v15h-2.5v-1.1a3.6,3.6,0,0,1-1.2,1,3.4,3.4,0,0,1-1.6.3,3.6,3.6,0,0,1-1.7-.4,3.9,3.9,0,0,1-1.3-1.1,5.2,5.2,0,0,1-.8-1.7,7.7,7.7,0,0,1-.3-2.1Zm2.7.2a6.4,6.4,0,0,0,.1,1.2,3.1,3.1,0,0,0,.4,1,1.9,1.9,0,0,0,.7.7l1,.2a2.1,2.1,0,0,0,1.2-.3,2.2,2.2,0,0,0,.7-.8v-4.3a2.1,2.1,0,0,0-.7-.8,2.1,2.1,0,0,0-1.2-.3l-1,.2a1.9,1.9,0,0,0-.7.7,3.3,3.3,0,0,0-.4,1,6.3,6.3,0,0,0-.1,1.2Z"/>
<path class="cls-6" d="M205.9,237.1h5.8v8.4h2.9v2.2h-8.6v-2.2h3v-6.1h-3Zm2.8-2.7a1.5,1.5,0,0,1,.1-.6l.3-.5.5-.3h.6a1.6,1.6,0,0,1,1.1.4,1.5,1.5,0,0,1,0,2.1,1.6,1.6,0,0,1-1.1.4h-.6l-.5-.3-.3-.5A1.5,1.5,0,0,1,208.7,234.4Z"/>
<path class="cls-6" d="M220.2,244.5v0l2.3-7.5h2.8l-4,10.6h-2.5l-4-10.6h2.8Z"/>
<path class="cls-5" d="M227.7,239.5v-2.6l8.8,3.6v2.2l-8.8,3.6v-2.6l5.6-1.9.6-.2-.6-.2Z"/>
<path class="cls-5" d="M140.8,275.3l-.7.2.7.2,5.4,1.8v2.6l-8.6-3.6v-2.2l8.6-3.6v2.6Z"/>
<path class="cls-5" d="M151,282.9h-2.5l5.3-15.4h2.5Z"/>
<path class="cls-6" d="M164.5,278.8a.8.8,0,0,0-.1-.4l-.4-.3-.8-.3-1.2-.3-1.7-.5-1.3-.7a3.1,3.1,0,0,1-.9-.9,2.3,2.3,0,0,1-.3-1.2,2.7,2.7,0,0,1,.3-1.2,3.2,3.2,0,0,1,.9-1,4.6,4.6,0,0,1,1.4-.7l1.9-.3,2,.3a4.7,4.7,0,0,1,1.5.7,3.1,3.1,0,0,1,.9,1.1,2.9,2.9,0,0,1,.3,1.4h-2.7a1.3,1.3,0,0,0-.5-1,2.3,2.3,0,0,0-1.5-.4,2.5,2.5,0,0,0-1.4.3,1,1,0,0,0-.5.8,1,1,0,0,0,.1.4l.3.4.7.3,1.1.2,1.8.4,1.4.6a2.9,2.9,0,0,1,.9.9,2.5,2.5,0,0,1,.3,1.3,2.6,2.6,0,0,1-.3,1.3,3.1,3.1,0,0,1-1,1,4.8,4.8,0,0,1-1.5.7l-2,.2a6.5,6.5,0,0,1-2.1-.3,4.9,4.9,0,0,1-1.5-.8,3.5,3.5,0,0,1-.9-1.1,2.9,2.9,0,0,1-.3-1.3h2.6a1.5,1.5,0,0,0,.2.7l.5.5.7.3h.9a3,3,0,0,0,1.5-.3A1,1,0,0,0,164.5,278.8Z"/>
<path class="cls-6" d="M174.6,281.9a5.9,5.9,0,0,1-2.2-.4,5.2,5.2,0,0,1-1.7-1.1,4.8,4.8,0,0,1-1.1-1.6,5.2,5.2,0,0,1-.4-2v-.4a6.2,6.2,0,0,1,.4-2.2,5.1,5.1,0,0,1,1.1-1.7,4.8,4.8,0,0,1,1.6-1.1,5.1,5.1,0,0,1,2-.4,5.2,5.2,0,0,1,2,.4,4.2,4.2,0,0,1,1.5,1.1,4.6,4.6,0,0,1,.9,1.6,6.7,6.7,0,0,1,.3,2.1v1.2h-7.2a2.9,2.9,0,0,0,.3,1l.6.8.8.5,1,.2h.8l.8-.2.7-.4.5-.5,1.4,1.5-.7.7-1,.6-1.2.4Zm-.3-8.8-.8.2-.7.5-.5.7a3.9,3.9,0,0,0-.3.9h4.5v-.2a2.6,2.6,0,0,0-.2-.8,1.9,1.9,0,0,0-.4-.7l-.7-.4Z"/>
<path class="cls-6" d="M186,279.7h.8l.6-.3.4-.5a1.3,1.3,0,0,0,.1-.7h2.6a3.1,3.1,0,0,1-.3,1.5,3.8,3.8,0,0,1-1,1.2,4.7,4.7,0,0,1-1.4.8,5.1,5.1,0,0,1-1.7.3,5.2,5.2,0,0,1-2.2-.4,4.3,4.3,0,0,1-1.5-1.1,4.9,4.9,0,0,1-.9-1.7,6.7,6.7,0,0,1-.3-2.1v-.3a6.8,6.8,0,0,1,.3-2.1,4.8,4.8,0,0,1,.9-1.7,4.5,4.5,0,0,1,1.5-1.1,5.1,5.1,0,0,1,2.1-.4,5.4,5.4,0,0,1,1.8.3,4.3,4.3,0,0,1,1.4.8,3.7,3.7,0,0,1,.9,1.3,4,4,0,0,1,.3,1.7H188a1.8,1.8,0,0,0-.1-.7l-.4-.6-.6-.4-.8-.2a1.8,1.8,0,0,0-1.7,1,3.2,3.2,0,0,0-.4,1,6.6,6.6,0,0,0-.1,1.2v.3a7,7,0,0,0,.1,1.2,3,3,0,0,0,.3,1,1.9,1.9,0,0,0,.7.7A2,2,0,0,0,186,279.7Z"/>
<path class="cls-6" d="M197.8,268.5v2.6h3.9v2h-3.9v4.5a3,3,0,0,0,.1,1,1.5,1.5,0,0,0,.4.6l.6.3h3l.3,1.9-.7.3-.8.2H199l-1.6-.2a3.1,3.1,0,0,1-1.2-.7,3.2,3.2,0,0,1-.8-1.2,5.2,5.2,0,0,1-.3-1.8v-4.8h-2.4v-2h2.4v-2.6Z"/>
<path class="cls-6" d="M204.9,271.1h5.8v8.4h2.9v2.2h-8.6v-2.2h3v-6.1h-3Zm2.8-2.7a1.5,1.5,0,0,1,.1-.6l.3-.5.5-.3h.6a1.6,1.6,0,0,1,1.1.4,1.5,1.5,0,0,1,0,2.1,1.6,1.6,0,0,1-1.1.4h-.6l-.5-.3-.3-.5A1.5,1.5,0,0,1,207.7,268.4Z"/>
<path class="cls-6" d="M215.3,276.3a6.6,6.6,0,0,1,.3-2.1,4.9,4.9,0,0,1,1-1.7,4.5,4.5,0,0,1,1.6-1.1,5.7,5.7,0,0,1,4.2,0,4.5,4.5,0,0,1,1.6,1.1,4.9,4.9,0,0,1,1,1.7,6.6,6.6,0,0,1,.3,2.1v.2a6.7,6.7,0,0,1-.3,2.1,4.9,4.9,0,0,1-1,1.7,4.4,4.4,0,0,1-1.6,1.1,5.2,5.2,0,0,1-2.1.4,5.3,5.3,0,0,1-2.1-.4,4.4,4.4,0,0,1-1.6-1.1,4.9,4.9,0,0,1-1-1.7,6.7,6.7,0,0,1-.3-2.1Zm2.7.2a5.8,5.8,0,0,0,.1,1.2,3.2,3.2,0,0,0,.4,1,2,2,0,0,0,.7.7l1,.3,1-.3a2,2,0,0,0,.7-.7,3.2,3.2,0,0,0,.4-1,5.8,5.8,0,0,0,.1-1.2v-.2a5.7,5.7,0,0,0-.1-1.2,3.3,3.3,0,0,0-.4-1,2,2,0,0,0-.7-.7l-1-.3-1,.3a2,2,0,0,0-.7.7,3.2,3.2,0,0,0-.4,1,5.7,5.7,0,0,0-.1,1.2Z"/>
<path class="cls-6" d="M230.2,271.1l.2,1.5a4,4,0,0,1,1.4-1.2,3.7,3.7,0,0,1,1.8-.4l1.5.2a2.9,2.9,0,0,1,1.1.7,3.5,3.5,0,0,1,.8,1.3,6.2,6.2,0,0,1,.3,2v6.5h-2.7v-6.5a3.2,3.2,0,0,0-.1-1,1.5,1.5,0,0,0-.4-.6l-.6-.3h-.8a2.4,2.4,0,0,0-1.2.3,2.2,2.2,0,0,0-.8.8v7.5h-2.7V271.1Z"/>
<path class="cls-5" d="M239.7,273.5v-2.6l8.8,3.6v2.2l-8.8,3.6v-2.6l5.6-1.9.6-.2-.6-.2Z"/>
</svg>
