<?xml version="1.0" encoding="utf-8"?><!DOCTYPE svg PUBLIC "-//W3C//DTD SVG 1.1//EN" "http://www.w3.org/Graphics/SVG/1.1/DTD/svg11.dtd"><svg version="1.1" id="flexr-main" xmlns="http://www.w3.org/2000/svg" xmlns:xlink="http://www.w3.org/1999/xlink" x="0px" y="0px" viewBox="0 0 264 74" style="fill:#FF6868"><path d="M246,48v24h-23V18h22v6c8-10.2,19-7,19-7l-2,20c0,0-0.8-0.6-4.9-0.6C249.6,36.4,246,41.7,246,48z"/><path d="M184.1,59.8L175.3,72H149l20.6-27.7L150.4,18H177l7.7,11.3l7.6-11.3H218l-19.1,26.3L219,72h-26.7L184.1,59.8z"/><path d="M123.3,16L123.3,16L123.3,16z"/><path d="M151.6,45c0-13.9-9.1-29-28.2-29C105,16,93.7,29.1,93.7,45c0,16.9,12.5,29,29.8,29c20.8,0,26.5-12.5,26.5-12.5l-16.7-8.4c0,0-2.9,3.8-8.8,3.8s-9.2-3.5-9.2-6.3h36C151.4,50.5,151.6,47.8,151.6,45z M115.2,37.9c0,0,0.8-6.5,8.4-6.5c6,0,7.7,3.9,7.7,6.5H115.2z"/><rect x="64" width="24" height="72"/><rect y="52" width="24" height="20"/><rect y="26" width="40" height="20"/><rect width="58" height="20"/></svg>
