<?xml version="1.0" encoding="utf-8"?>
<!DOCTYPE svg PUBLIC "-//W3C//DTD SVG 1.1//EN" "http://www.w3.org/Graphics/SVG/1.1/DTD/svg11.dtd">
<svg xmlns="http://www.w3.org/2000/svg" viewBox="0 0 1250 250">
<defs>
<filter id="blur"><feGaussianBlur stdDeviation="4"></feGaussianBlur></filter>
<style>
    .sdw {opacity: 0.6; filter:url(#blur); mix-blend-mode: multiply; isolation: isolate}
    .cls-2 {fill: #f56}
    .cls-3 {fill: #eef}
    .cls-4 {fill: #3dd}
    .cls-5 {fill: none; stroke: #2b2b3f; stroke-width: 6px}
    .cls-6 {fill: #5eb}
</style></defs><title>Flexr Grid Sprite</title>
<g id="code">
<rect class="sdw" x="50" y="50" width="150" height="150"/>
<rect class="cls-2" x="50" y="50" width="150" height="150"/>
<polygon class="cls-3" points="82 129 89 136 89 161 109 161 109 150 101 150 101 131 94 125 101 119 101 100 109 100 109 89 89 89 89 114 82 121 82 129"/>
<polygon class="cls-3" points="168 129 161 136 161 161 141 161 141 150 149 150 149 131 156 125 149 119 149 100 141 100 141 89 161 89 161 114 168 121 168 129"/>
</g><g id="bundle">
<rect class="sdw" x="270" y="20" width="150" height="150"/>
<rect class="cls-2" x="270" y="20" width="150" height="150"/>
<rect class="sdw" x="330" y="80" width="150" height="150"/>
<polygon class="cls-3" points="302 99 309 106 309 131 329 131 329 120 321 120 321 101 314 95 321 89 321 70 329 70 329 59 309 59 309 84 302 91 302 99"/>
<polygon class="cls-3" points="388 99 381 106 381 131 361 131 361 120 369 120 369 101 376 95 369 89 369 70 361 70 361 59 381 59 381 84 388 91 388 99"/>
<rect class="cls-4" x="330" y="80" width="150" height="150"/>
<rect class="cls-3" x="366" y="119" width="18" height="72"/>
<rect class="cls-3" x="396" y="119" width="18" height="72"/>
<rect class="cls-3" x="426" y="119" width="18" height="72"/>
</g><g id="grid">
<rect class="sdw" x="578" y="151" width="39" height="32"/>
<rect class="sdw" x="578" y="109" width="66" height="32"/>
<rect class="sdw" x="578" y="67" width="95" height="32"/>
<rect class="cls-2" x="578" y="151" width="39" height="32"/>
<rect class="cls-2" x="578" y="109" width="66" height="32"/>
<rect class="cls-2" x="578" y="67" width="95" height="32"/>
</g><g id="doc">
<polygon class="sdw" points="828 96 828 185 922 185 922 65 859 65 828 96"/>
<polygon class="cls-4" points="828 96 828 185 922 185 922 65 859 65 828 96"/>
<line class="cls-5" x1="850" y1="106" x2="900" y2="106"/>
<line class="cls-5" x1="850" y1="119" x2="884" y2="119"/>
<line class="cls-5" x1="850" y1="132" x2="868" y2="132"/>
</g><g id="download">
<polygon class="sdw" points="1136 109 1136 74 1114 74 1114 109 1099 109 1125 142 1151 109 1136 109"/>
<rect class="sdw" x="1076" y="156" width="98" height="20"/>
<polygon class="cls-6" points="1136 109 1136 74 1114 74 1114 109 1099 109 1125 142 1151 109 1136 109"/>
<rect class="cls-6" x="1076" y="156" width="98" height="20"/>
</g></svg>
