<?xml version="1.0" encoding="utf-8"?>
<svg xmlns="http://www.w3.org/2000/svg" viewBox="0 0 265 74" style="fill:#F56"><path d="M247,46c0-3.7,3.6-9.6,11-9.6c4.1,0,5,0.6,5,0.6l2-20c0,0-11.5-3.3-18.7,7H246v-6h-22v54h23V46z"/><polygon points="151.4,18 170.6,44.3 150,72 176.3,72 185.1,59.8 193.3,72 220,72 199.8,44.3 219,18 193.3,18 185.7,29.3 178,18"/>
<path d="M152.6,45c0-13.9-9.2-29-28.2-29C106,16,94.6,29.2,94.6,45c0,16.9,12.5,29,29.8,29c20.8,0,26.6-12.5,26.6-12.5l-16.7-8.3c0,0-2.9,3.6-8.8,3.6c-5.9,0-9.1-3.5-9.1-6.3h36C152.4,50.5,152.6,47.7,152.6,45zM116.2,38c0,0,0.8-6.6,8.4-6.6c6,0,7.7,4,7.7,6.6H116.2z"/><rect x="65" y="0" width="24" height="72"/><rect x="0" y="52" width="24" height="20"/><rect x="0" y="26" width="41" height="20"/><rect x="0" y="0" width="59" height="20"/></svg>
