<?xml version="1.0" encoding="utf-8"?><!DOCTYPE svg PUBLIC "-//W3C//DTD SVG 1.1//EN" "http://www.w3.org/Graphics/SVG/1.1/DTD/svg11.dtd"><svg version="1.1" xmlns="http://www.w3.org/2000/svg" xmlns:xlink="http://www.w3.org/1999/xlink" x="0px" y="0px" viewBox="0 0 500 250" xml:space="preserve"><defs><filter id="a" name="AI_GaussianBlur_4"><feGaussianBlur stdDeviation="4"/></filter></defs><title>download</title><g style="opacity:0.6;filter:url(#a)"><rect x="270" y="20" width="150" height="150"/></g><rect x="270" y="20" width="150" height="150" style="fill:#ff6868"/><path d="M315,95.08c2.45,0,7.21,2.7,7.21,9.42V116c0,2.85,1.06,5.09,4.24,5.09h2.89v11.62h-8.14c-8.2,0-12.64-5.75-12.64-14.51V107c0-3.74-1.06-5.94-5.52-5.94V89c4.46,0,5.52-2.2,5.52-5.94V71.84c0-8.76,4.45-14.51,12.64-14.51h8.14V69h-2.89c-3.18,0-4.24,2.24-4.24,5.09V85.5c0,6.72-4.76,9.42-7.21,9.42v0.17Z" style="fill:#eef"/><path d="M375,95.08c-2.45,0-7.21,2.7-7.21,9.42V116c0,2.85-1.06,5.09-4.24,5.09H360.7v11.62h8.14c8.2,0,12.64-5.75,12.64-14.51V107c0-3.74,1.06-5.94,5.52-5.94V89c-4.46,0-5.52-2.2-5.52-5.94V71.84c0-8.76-4.45-14.51-12.64-14.51H360.7V69h2.89c3.18,0,4.24,2.24,4.24,5.09V85.5c0,6.72,4.76,9.42,7.21,9.42v0.17Z" style="fill:#eef"/><g style="opacity:0.6;filter:url(#a)"><rect x="330" y="80" width="150" height="150"/></g><rect x="330" y="80" width="150" height="150" style="fill:#4dd"/><rect x="366" y="119" width="18" height="72" style="fill:#eef"/><rect x="396" y="119" width="18" height="72" style="fill:#eef"/><rect x="426" y="119" width="18" height="72" style="fill:#eef"/><g style="opacity:0.6;filter:url(#a)"><rect x="50" y="50" width="150" height="150"/></g><rect x="50" y="50" width="150" height="150" style="fill:#ff6868"/><path d="M95,125.08c2.45,0,7.21,2.7,7.21,9.42V146c0,2.85,1.06,5.09,4.24,5.09h2.89v11.62h-8.14c-8.2,0-12.64-5.75-12.64-14.51V137c0-3.74-1.06-5.94-5.52-5.94V119c4.46,0,5.52-2.2,5.52-5.94v-11.2c0-8.76,4.45-14.51,12.64-14.51h8.14V99h-2.89c-3.18,0-4.24,2.24-4.24,5.09V115.5c0,6.72-4.76,9.42-7.21,9.42v0.17Z" style="fill:#eef"/><path d="M155,125.08c-2.45,0-7.21,2.7-7.21,9.42V146c0,2.85-1.06,5.09-4.24,5.09H140.7v11.62h8.14c8.2,0,12.64-5.75,12.64-14.51V137c0-3.74,1.06-5.94,5.52-5.94V119c-4.46,0-5.52-2.2-5.52-5.94v-11.2c0-8.76-4.45-14.51-12.64-14.51H140.7V99h2.89c3.18,0,4.24,2.24,4.24,5.09V115.5c0,6.72,4.76,9.42,7.21,9.42v0.17Z" style="fill:#eef"/></svg>
