<?xml version="1.0" encoding="utf-8"?><!DOCTYPE svg PUBLIC "-//W3C//DTD SVG 1.1//EN" "http://www.w3.org/Graphics/SVG/1.1/DTD/svg11.dtd"><svg xmlns="http://www.w3.org/2000/svg" xmlns:xlink="http://www.w3.org/1999/xlink" aria-labelledby="title" viewBox="0 0 266 74" style="fill:#F56"><title id="title">Flexr Grid Logotype</title><path d="M248,46c0-3.7,3.6-9.6,11-9.6,4.1,0,5,.6,5,.6l2-20s-11.5-3.3-18.7,7H247V18H225V72h23Z"/><polygon points="152.4 18 171.6 44.3 151 72 177.3 72 186.1 59.8 194.3 72 221 72 200.8 44.3 220 18 194.3 18 186.7 29.3 179 18 152.4 18"/><path d="M153.6,45c0-13.9-9.2-29-28.2-29S95.6,29.2,95.6,45s12.5,29,29.8,29C146.2,74,152,61.5,152,61.5l-16.7-8.3a11.6,11.6,0,0,1-8.8,3.6c-5.9,0-9.1-3.5-9.1-6.3h36S153.6,47.7,153.6,45Zm-36.4-7s.8-6.6,8.4-6.6c6,0,7.7,4,7.7,6.6Z"/><rect x="66" width="24" height="72"/><rect y="52" width="24" height="20"/><rect y="26" width="42" height="20"/><rect width="60" height="20"/></svg>
