<?xml version="1.0" encoding="utf-8"?>
<svg xmlns="http://www.w3.org/2000/svg" viewBox="0 0 264 74" style="fill:#F56">
<path d="M246,48v24h-23V18h22v6c8-10.2,19-7,19-7l-2,20c0,0-0.8-0.6-4.9-0.6C249.6,36.4,246,41.7,246,48z"/><polygon points="150,18 177,18 185,29 192,18 218,18 199,44 219,72 192,72 184,60 175,72 149,72 170,44"/><path d="M151.6,45c0-13.9-9.1-29-28.2-29C105,16,93.7,29.1,93.7,45c0,16.9,12.5,29,29.8,29c20.8,0,26.5-12.5,26.5-12.5l-16.7-8.4c0,0-2.9,3.8-8.8,3.8s-9.2-3.5-9.2-6.3h36C151.4,50.5,151.6,47.8,151.6,45zM115.2,37.9c0,0,0.8-6.5,8.4-6.5c6,0,7.7,3.9,7.7,6.5H115.2z"/><rect x="64" width="24" height="72"/><rect y="52" width="24" height="20"/><rect y="26" width="40" height="20"/><rect width="58" height="20"/></svg>
