<svg xmlns="http://www.w3.org/2000/svg" xmlns:xlink="http://www.w3.org/1999/xlink" viewBox="0 0 655 429"><defs><filter id="a" name="AI_GaussianBlur_4"><feGaussianBlur stdDeviation="4"/></filter><filter id="b" name="AI_GaussianBlur_7"><feGaussianBlur stdDeviation="7"/></filter></defs><title>hero</title><g style="isolation:isolate"><g style="opacity:0.65;mix-blend-mode:multiply;filter:url(#a)"><rect x="20" y="20" width="504" height="360"/></g><rect x="20" y="20" width="504" height="360" style="fill:#dfdff0"/><rect x="20" y="20" width="504" height="60" style="fill:#636380"/><rect x="108" y="234" width="70" height="130" style="fill:#afafbd"/><rect x="194" y="234" width="70" height="130" style="fill:#afafbd"/><rect x="280" y="234" width="70" height="130" style="fill:#afafbd"/><rect x="366" y="234" width="70" height="130" style="fill:#afafbd"/><rect x="108" y="96" width="328" height="122" style="fill:#c7c7d4"/><rect x="108" y="35" width="70" height="30" style="fill:#f66"/><rect x="280" y="43" width="40" height="14" style="fill:#dfdff0"/><rect x="338" y="43" width="40" height="14" style="fill:#dfdff0"/><rect x="396" y="43" width="40" height="14" style="fill:#dfdff0"/><g style="opacity:0.6;mix-blend-mode:multiply;filter:url(#b)"><rect x="415" y="69" width="220" height="340"/></g><rect x="415" y="69" width="220" height="340" style="fill:#dfdff0"/><rect x="415" y="69" width="220" height="40" style="fill:#636380"/><rect x="425" y="289" width="95" height="110" style="fill:#afafbd"/><rect x="530" y="289" width="95" height="110" style="fill:#afafbd"/><rect x="425" y="119" width="200" height="160" style="fill:#c7c7d4"/><rect x="505" y="79" width="40" height="20" style="fill:#f66"/></g></svg>
