<?xml version="1.0" encoding="utf-8"?>
<!DOCTYPE svg PUBLIC "-//W3C//DTD SVG 1.1//EN" "http://www.w3.org/Graphics/SVG/1.1/DTD/svg11.dtd">
<svg xmlns="http://www.w3.org/2000/svg" aria-labelledby="title" viewBox="0 0 1500 1000">
<title id="title">Master sprite sheet of icons</title>
<defs><style><![CDATA[
      .cls-1, .cls-9 {
        fill: #f56
      }

      .cls-11, .cls-2 {
        fill: none
      }

      .cls-2 {
        stroke: #334;
        stroke-width: 13px
      }

      .cls-3 {
        fill: #dde
      }

      .cls-4 {
        fill: #779
      }

      .cls-14, .cls-5 {
        fill: #fa6
      }

      .cls-10, .cls-11, .cls-12, .cls-13, .cls-14, .cls-5, .cls-6, .cls-7, .cls-8, .cls-9 {
        stroke: #1c1c2d
      }

      .cls-10, .cls-11, .cls-12, .cls-13, .cls-14, .cls-5, .cls-6, .cls-8, .cls-9 {
        stroke-width: 5px
      }

      .cls-6 {
        fill: #eef
      }

      .cls-10, .cls-7, .cls-8 {
        fill: #3dd
      }

      .cls-12 {
        fill: #5eb
      }

      .cls-13 {
        fill: #4b4b69
      }
]]></style></defs>
  <g id="nav">
    <g id="active">
      <polygon class="cls-1" points="650 840 650 750 600 750 600 840 562 840 625 915 688 840 650 840"/>
      <rect class="cls-1" x="512" y="956" width="226" height="44"/>
      <polygon class="cls-1" points="281 819 281 994 469 994 469 756 344 756 281 819"/>
      <line class="cls-2" x1="325" y1="837" x2="425" y2="837"/>
      <line class="cls-2" x1="325" y1="863" x2="388" y2="863"/>
      <line class="cls-2" x1="325" y1="889" x2="363" y2="889"/>
      <rect class="cls-1" x="9" y="762" width="56" height="226"/>
      <rect class="cls-1" x="97" y="762" width="56" height="226"/>
      <rect class="cls-1" x="185" y="762" width="56" height="226"/>
    </g>
    <g id="resting">
      <polygon class="cls-3" points="650 590 650 500 600 500 600 590 562 590 625 665 688 590 650 590"/>
      <rect class="cls-3" x="512" y="706" width="226" height="44"/>
      <polygon class="cls-3" points="281 569 281 744 469 744 469 506 344 506 281 569"/>
      <line class="cls-2" x1="325" y1="587" x2="425" y2="587"/>
      <line class="cls-2" x1="325" y1="613" x2="388" y2="613"/>
      <line class="cls-2" x1="325" y1="639" x2="363" y2="639"/>
      <rect class="cls-3" x="9" y="512" width="56" height="226"/>
      <rect class="cls-3" x="97" y="512" width="56" height="226"/>
      <rect class="cls-3" x="185" y="512" width="56" height="226"/>
    </g>
  </g>
  <g id="browsers">
    <path id="edge" class="cls-4" d="M1035.2,363.7c2.7-36.7,31.7-86.2,92.2-86.2,47.2,0,87.3,35.9,87.3,90v22.9H1092.7c0,9.3,3.8,41.8,51.1,41.8,34.7,0,54.6-14.9,54.6-14.9v41s-21.9,14.2-58.7,14.2c-39.8,0-82.1-24.7-82.1-77.2s47.3-69.9,47.3-69.9-13.3,17.8-13.3,30.9h69.6c0-15.7-5.3-41.7-38.3-41.7C1066.2,314.7,1035.2,363.7,1035.2,363.7Z"/>
    <path id="opera" class="cls-4" d="M906,464.7c-52.5,0-85.1-40.3-85.1-90.3h0v-.2a107.3,107.3,0,0,1,1.2-15.7l.2-1.2v-.7c6.7-41.4,37.5-72.6,83.7-72.6,14.4,0,29,5.9,41.5,16a104.2,104.2,0,1,0,2.2,147.3l3.3-3.5C939.4,456.9,922.6,464.7,906,464.7Zm70.9-111.4a92.9,92.9,0,0,0-21-40.6c-14.2-16.1-32.4-25.2-49.9-25.2s-32.2,4.3-44.8,12.6a40.3,40.3,0,0,1,14.7-2.7c30.3,0,54.8,34.4,54.8,76.9s-24.6,76.9-54.8,76.9a40.7,40.7,0,0,1-16.7-3.6c13.1,9.2,29,13.9,46.9,13.9s35.7-9.3,49.9-25.3a92.9,92.9,0,0,0,22.4-48.1,105.1,105.1,0,0,0-1.4-34.7Z"/>
    <path id="chrome" class="cls-4" d="M625.1,337.3a37.8,37.8,0,1,1-37.7,37.8A37.7,37.7,0,0,1,625.1,337.3Zm-47.3,31.3a47.8,47.8,0,0,1,47.3-41.3h92.6a104.2,104.2,0,0,0-173.8-17.4Zm65.4,50.6a47.7,47.7,0,0,1-59.4-20.3h0l-46.3-80.2a104.2,104.2,0,0,0,71.8,159.3Zm11.1-81.9a47.7,47.7,0,0,1,12.2,61.6h0l-46.2,80.2h4.9a104.2,104.2,0,0,0,97.1-141.7Z"/>
    <path id="safari" class="cls-4" d="M375,279.2a94.4,94.4,0,1,1-67.7,28.1A95.8,95.8,0,0,1,375,279.2m0-8.3a104.2,104.2,0,1,0,73.7,30.5A104.2,104.2,0,0,0,375,270.8ZM441,309l-74.8,57.2L309,441l74.8-57.2h0Zm-72.4,59.5,12.9,13-54.7,41.7Z"/>
    <path id="firefox" class="cls-4" d="M211.5,429.9a102.9,102.9,0,0,0,10.8-21.7c7.5-13.7,14.4-38.4,8.2-60,.7,2.9,3.8,16.3-2.1,27.1v-2a103.7,103.7,0,0,0-2-20.5c.1-1.6.2-3.3.2-4.9,0-18.3-7.1-33.9-20.2-46.5,0,0,8.2,9.1,9.1,21.8A103.3,103.3,0,0,0,48.1,304.6a35.9,35.9,0,0,1-6.2-14.1s-12,10-10.7,38.3c-6.1,8.5-11.3,20.6-14.2,37.9a78.2,78.2,0,0,1,4.6-10c-1.2,2.5-3.7,11-2.9,37.2,0,0,1.4-8.9,2.4-11.7,0,0-1.4,74.6,87.8,97.1,0,0-6.3-3.2-8.1-4.6s15.8,6,31.1,5.2a18.3,18.3,0,0,1-5.2-2.8s46.9,3.5,63.2-19c0,0-5.3,5.6-18.4,7.4A103.3,103.3,0,0,0,188.2,455c12.7-5.3,34.2-18.7,35.4-39.7C223.7,415.3,222.8,422,211.5,429.9Zm9.8-46.4-.2.3.4-1.3ZM125.2,276.7a96.2,96.2,0,0,1,41.6,9.3c6.9,4.9,21.6,16.5,27.5,31.5,0,0-8.2-10.2-20.2-11.6,0,0,25,18.9,23.2,57.8,0,0-2-7.6-9.9-15.1,0,0,3.8,32.7-1.5,43.8a30.8,30.8,0,0,0-2.6-7.1s-7.5,36.1-17.6,36.1c-2.8,0-.9-4.7-.9-4.7-9.7,5.3-9.7,11.5-13.2,11.5s1.3-1.4,1.5-4c-30.8,15.3-58.3-14-58.3-14a70.5,70.5,0,0,0,11.4,1.3c22,0,26.9-13.5,35.3-13.5,0,0,6.4,1.4,6.4-3.2,0-3-5.3-9.7-16-9.7-12.4,0-13.9,6.1-23.9,6.1-8.3,0-23.2-9.2-23.2-18,0-6.4,4.1-8.7,4.1-8.7,5.8-1.2,9.9,3.7,9.9,3.7,2.1-6.2.3-14.6.3-14.6a13.3,13.3,0,0,1,4.7-3.9c4.2-2.2,19.2-8.7,19.2-18.1,0-3.5-3.3-3.9-10.4-3.9-13.7,0-14.7-.1-20.1-8.7,0,0,1.6-11.1,14.9-20.6,0,0-13.2-5-28.6,12.3a30.9,30.9,0,0,0-11.4-1.9,41.9,41.9,0,0,0-13,2.2l-2-1.6,4.3-4.5A96,96,0,0,1,125.2,276.7Z"/>
  </g>
  <g id="main">
    <rect class="cls-5" x="35" y="35" width="180" height="180"/>
    <polygon class="cls-6" points="73.4 129.8 81.8 138.2 81.8 168.2 105.8 168.2 105.8 155 96.2 155 96.2 132.2 87.8 125 96.2 117.8 96.2 95 105.8 95 105.8 81.8 81.8 81.8 81.8 111.8 73.4 120.2 73.4 129.8"/>
    <polygon class="cls-6" points="176.6 129.8 168.2 138.2 168.2 168.2 144.2 168.2 144.2 155 153.8 155 153.8 132.2 162.2 125 153.8 117.8 153.8 95 144.2 95 144.2 81.8 168.2 81.8 168.2 111.8 176.6 120.2 176.6 129.8"/>
    <rect class="cls-5" x="263.5" y="13.5" width="155.7" height="155.71"/>
    <polygon class="cls-6" points="293.5 95.8 301.3 103.6 301.3 131.4 323.6 131.4 323.6 119.2 314.7 119.2 314.7 98 306.9 91.4 314.7 84.7 314.7 63.5 323.6 63.5 323.6 51.3 301.3 51.3 301.3 79.1 293.5 86.9 293.5 95.8"/>
    <polygon class="cls-6" points="389.2 95.8 381.4 103.6 381.4 131.4 359.1 131.4 359.1 119.2 368 119.2 368 98 375.8 91.4 368 84.7 368 63.5 359.1 63.5 359.1 51.3 381.4 51.3 381.4 79.1 389.2 86.9 389.2 95.8"/>
    <rect class="cls-7" x="330.2" y="80.2" width="155.7" height="155.71"/>
    <rect class="cls-8" x="324.7" y="74.7" width="166.8" height="166.83"/>
    <rect class="cls-6" x="364.7" y="118" width="20" height="80.08"/>
    <rect class="cls-6" x="398.1" y="118" width="20" height="80.08"/>
    <rect class="cls-6" x="431.4" y="118" width="20" height="80.08"/>
    <rect class="cls-9" x="665.8" y="47.2" width="43.2" height="155.52"/>
    <rect class="cls-9" x="602.4" y="47.2" width="43.2" height="155.52"/>
    <rect class="cls-9" x="539" y="47.2" width="43.2" height="155.52"/>
    <polygon class="cls-10" points="807.3 83.2 807.3 211.4 942.7 211.4 942.7 38.6 852 38.6 807.3 83.2"/>
    <line class="cls-11" x1="839" y1="97.6" x2="911" y2="97.6"/>
    <line class="cls-11" x1="839" y1="116.4" x2="888" y2="116.4"/>
    <line class="cls-11" x1="839" y1="135.1" x2="864.9" y2="135.1"/>
    <polygon class="cls-12" points="1140.8 103.4 1140.8 47.2 1109.2 47.2 1109.2 103.4 1087.6 103.4 1125 150.9 1162.4 103.4 1140.8 103.4"/>
    <rect class="cls-12" x="1054.4" y="171.1" width="141.1" height="31.68"/>
    <rect class="cls-13" x="1285" y="35" width="180" height="180"/>
    <polygon class="cls-14" points="1318.6 120.2 1343.8 81.8 1358.2 81.8 1358.2 96.2 1352.2 96.2 1334.2 125 1352.2 153.8 1358.2 153.8 1358.2 168.2 1343.8 168.2 1318.6 129.8 1318.6 120.2"/>
    <polygon class="cls-14" points="1431.4 120.2 1406.2 81.8 1391.8 81.8 1391.8 96.2 1397.8 96.2 1415.8 125 1397.8 153.8 1391.8 153.8 1391.8 168.2 1406.2 168.2 1431.4 129.8 1431.4 120.2"/>
  </g>
</svg>
