<?xml version="1.0" encoding="utf-8"?>
<!DOCTYPE svg PUBLIC "-//W3C//DTD SVG 1.1//EN" "http://www.w3.org/Graphics/SVG/1.1/DTD/svg11.dtd">
<svg xmlns="http://www.w3.org/2000/svg" viewBox="0 0 1500 1000">
<defs>
<filter id="blur"><feGaussianBlur stdDeviation="4"></feGaussianBlur></filter>
<style><![CDATA[
        .sdw {opacity: 0.6; filter:url(#blur); mix-blend-mode: multiply; isolation: isolate}
        .cls-2, #active {fill: #F56}
        .cls-3 {fill: #EEF}
        .cls-4 {fill: #3DD}
        .cls-6 {fill: #5EB}
        .cls-7 {fill: #FA6}
        .cls-8 {fill: #494967}
        #resting {fill: #DDE}
        #browsers {fill: #779}
        #doc line, #active line, #resting line {fill: none; stroke: #2B2B3F}
        #doc line {stroke-width: 6px}
        #active line, #resting line {stroke-width: 13px}
]]></style></defs>
  <title>Flexr Grid CSS Sprite</title>
  <g id="nav">
    <g id="active">
      <polygon points="650 840 650 750 600 750 600 840 562 840 625 915 688 840 650 840"/>
      <rect x="512" y="956" width="226" height="44"/>
      <polygon points="281 819 281 994 469 994 469 756 344 756 281 819"/>
      <line x1="325" y1="837" x2="425" y2="837"/>
      <line x1="325" y1="863" x2="388" y2="863"/>
      <line x1="325" y1="889" x2="363" y2="889"/>
      <rect x="9" y="762" width="56" height="226"/>
      <rect x="97" y="762" width="56" height="226"/>
      <rect x="185" y="762" width="56" height="226"/>
    </g>
    <g id="resting">
      <polygon points="650 590 650 500 600 500 600 590 562 590 625 665 688 590 650 590"/>
      <rect x="512" y="706" width="226" height="44"/>
      <polygon points="281 569 281 744 469 744 469 506 344 506 281 569"/>
      <line x1="325" y1="587" x2="425" y2="587"/>
      <line x1="325" y1="613" x2="388" y2="613"/>
      <line x1="325" y1="639" x2="363" y2="639"/>
      <rect x="9" y="512" width="56" height="226"/>
      <rect x="97" y="512" width="56" height="226"/>
      <rect x="185" y="512" width="56" height="226"/>
    </g>
  </g>
  <g id="browsers">
    <path id="edge" d="M1035.2,363.7c2.7-36.7,31.7-86.2,92.2-86.2,47.2,0,87.3,35.9,87.3,90v22.9H1092.7c0,9.3,3.8,41.8,51.1,41.8,34.7,0,54.6-14.9,54.6-14.9v41s-21.9,14.2-58.7,14.2c-39.8,0-82.1-24.7-82.1-77.2s47.3-69.9,47.3-69.9-13.3,17.8-13.3,30.9h69.6c0-15.7-5.3-41.7-38.3-41.7C1066.2,314.7,1035.2,363.7,1035.2,363.7Z"/>
    <path id="opera" d="M906,464.7c-52.5,0-85.1-40.3-85.1-90.3h0v-.2a107.3,107.3,0,0,1,1.2-15.7l.2-1.2v-.7c6.7-41.4,37.5-72.6,83.7-72.6,14.4,0,29,5.9,41.5,16a104.2,104.2,0,1,0,2.2,147.3l3.3-3.5C939.4,456.9,922.6,464.7,906,464.7Zm70.9-111.4a92.9,92.9,0,0,0-21-40.6c-14.2-16.1-32.4-25.2-49.9-25.2s-32.2,4.3-44.8,12.6a40.3,40.3,0,0,1,14.7-2.7c30.3,0,54.8,34.4,54.8,76.9s-24.6,76.9-54.8,76.9a40.7,40.7,0,0,1-16.7-3.6c13.1,9.2,29,13.9,46.9,13.9s35.7-9.3,49.9-25.3a92.9,92.9,0,0,0,22.4-48.1,105.1,105.1,0,0,0-1.4-34.7Z"/>
    <path id="chrome" d="M625.1,337.3a37.8,37.8,0,1,1-37.7,37.8A37.7,37.7,0,0,1,625.1,337.3Zm-47.3,31.3a47.8,47.8,0,0,1,47.3-41.3h92.6a104.2,104.2,0,0,0-173.8-17.4Zm65.4,50.6a47.7,47.7,0,0,1-59.4-20.3h0l-46.3-80.2a104.2,104.2,0,0,0,71.8,159.3Zm11.1-81.9a47.7,47.7,0,0,1,12.2,61.6h0l-46.2,80.2h4.9a104.2,104.2,0,0,0,97.1-141.7Z"/>
    <path id="safari" d="M375,279.2a94.4,94.4,0,1,1-67.7,28.1A95.8,95.8,0,0,1,375,279.2m0-8.3a104.2,104.2,0,1,0,73.7,30.5A104.2,104.2,0,0,0,375,270.8ZM441,309l-74.8,57.2L309,441l74.8-57.2h0Zm-72.4,59.5,12.9,13-54.7,41.7Z"/>
    <path id="firefox" d="M211.5,429.9a102.9,102.9,0,0,0,10.8-21.7c7.5-13.7,14.4-38.4,8.2-60,.7,2.9,3.8,16.3-2.1,27.1v-2a103.7,103.7,0,0,0-2-20.5c.1-1.6.2-3.3.2-4.9,0-18.3-7.1-33.9-20.2-46.5,0,0,8.2,9.1,9.1,21.8A103.3,103.3,0,0,0,48.1,304.6a35.9,35.9,0,0,1-6.2-14.1s-12,10-10.7,38.3c-6.1,8.5-11.3,20.6-14.2,37.9a78.2,78.2,0,0,1,4.6-10c-1.2,2.5-3.7,11-2.9,37.2,0,0,1.4-8.9,2.4-11.7,0,0-1.4,74.6,87.8,97.1,0,0-6.3-3.2-8.1-4.6s15.8,6,31.1,5.2a18.3,18.3,0,0,1-5.2-2.8s46.9,3.5,63.2-19c0,0-5.3,5.6-18.4,7.4A103.3,103.3,0,0,0,188.2,455c12.7-5.3,34.2-18.7,35.4-39.7C223.7,415.3,222.8,422,211.5,429.9Zm9.8-46.4-.2.3.4-1.3ZM125.2,276.7a96.2,96.2,0,0,1,41.6,9.3c6.9,4.9,21.6,16.5,27.5,31.5,0,0-8.2-10.2-20.2-11.6,0,0,25,18.9,23.2,57.8,0,0-2-7.6-9.9-15.1,0,0,3.8,32.7-1.5,43.8a30.8,30.8,0,0,0-2.6-7.1s-7.5,36.1-17.6,36.1c-2.8,0-.9-4.7-.9-4.7-9.7,5.3-9.7,11.5-13.2,11.5s1.3-1.4,1.5-4c-30.8,15.3-58.3-14-58.3-14a70.5,70.5,0,0,0,11.4,1.3c22,0,26.9-13.5,35.3-13.5,0,0,6.4,1.4,6.4-3.2,0-3-5.3-9.7-16-9.7-12.4,0-13.9,6.1-23.9,6.1-8.3,0-23.2-9.2-23.2-18,0-6.4,4.1-8.7,4.1-8.7,5.8-1.2,9.9,3.7,9.9,3.7,2.1-6.2.3-14.6.3-14.6a13.3,13.3,0,0,1,4.7-3.9c4.2-2.2,19.2-8.7,19.2-18.1,0-3.5-3.3-3.9-10.4-3.9-13.7,0-14.7-.1-20.1-8.7,0,0,1.6-11.1,14.9-20.6,0,0-13.2-5-28.6,12.3a30.9,30.9,0,0,0-11.4-1.9,41.9,41.9,0,0,0-13,2.2l-2-1.6,4.3-4.5A96,96,0,0,1,125.2,276.7Z"/>
  </g>
  <g id="main">
    <g id="code">
      <rect class="sdw" x="50" y="50" width="150" height="150"/>
      <rect class="cls-7" x="50" y="50" width="150" height="150"/>
      <polygon class="cls-3" points="82 129 89 136 89 161 109 161 109 150 101 150 101 131 94 125 101 119 101 100 109 100 109 89 89 89 89 114 82 121 82 129"/>
      <polygon class="cls-3" points="168 129 161 136 161 161 141 161 141 150 149 150 149 131 156 125 149 119 149 100 141 100 141 89 161 89 161 114 168 121 168 129"/>
    </g>
    <g id="bundle">
      <rect class="sdw" x="275" y="25" width="140" height="140"/>
      <rect class="cls-7" x="275" y="25" width="140" height="140"/>
      <polygon class="cls-3" points="302 99 309 106 309 131 329 131 329 120 321 120 321 101 314 95 321 89 321 70 329 70 329 59 309 59 309 84 302 91 302 99"/>
      <polygon class="cls-3" points="388 99 381 106 381 131 361 131 361 120 369 120 369 101 376 95 369 89 369 70 361 70 361 59 381 59 381 84 388 91 388 99"/>
      <rect class="sdw" x="335" y="85" width="140" height="140"/>
      <rect class="cls-4" x="330" y="80" width="150" height="150"/>
      <rect class="cls-3" x="366" y="119" width="18" height="72"/>
      <rect class="cls-3" x="396" y="119" width="18" height="72"/>
      <rect class="cls-3" x="426" y="119" width="18" height="72"/>
    </g>
    <g id="grid">
      <rect class="sdw" x="653" y="71" width="30" height="108"/>
      <rect class="sdw" x="609" y="71" width="30" height="108"/>
      <rect class="sdw" x="565" y="71" width="30" height="108"/>
      <rect class="cls-2" x="653" y="71" width="30" height="108"/>
      <rect class="cls-2" x="609" y="71" width="30" height="108"/>
      <rect class="cls-2" x="565" y="71" width="30" height="108"/>
    </g>
    <g id="doc">
      <polygon class="sdw" points="828 96 828 185 922 185 922 65 859 65 828 96"/>
      <polygon class="cls-4" points="828 96 828 185 922 185 922 65 859 65 828 96"/>
      <line class="cls-5" x1="850" y1="106" x2="900" y2="106"/>
      <line class="cls-5" x1="850" y1="119" x2="884" y2="119"/>
      <line class="cls-5" x1="850" y1="132" x2="868" y2="132"/>
    </g>
    <g id="download">
      <polygon class="sdw" points="1136 110 1136 71 1114 71 1114 110 1099 110 1125 143 1151 110 1136 110"/>
      <rect class="sdw" x="1076" y="157" width="98" height="22"/>
      <polygon class="cls-6" points="1136 110 1136 71 1114 71 1114 110 1099 110 1125 143 1151 110 1136 110"/>
      <rect class="cls-6" x="1076" y="157" width="98" height="22"/>
    </g>
    <g id="host">
      <rect class="sdw" x="1300" y="50" width="150" height="150"/>
      <rect class="cls-8" x="1300" y="50" width="150" height="150"/>
      <polygon class="cls-7" points="1328 121 1349 89 1361 89 1361 101 1356 101 1341 125 1356 149 1361 149 1361 161 1349 161 1328 129 1328 121"/>
      <polygon class="cls-7" points="1422 121 1401 89 1389 89 1389 101 1394 101 1409 125 1394 149 1389 149 1389 161 1401 161 1422 129 1422 121"/>
    </g>
  </g>
</svg>
